<?xml version="1.0" encoding="UTF-8" standalone="no"?>
<svg
   width="20"
   height="23.486238"
   viewBox="0 0 20 23.486238"
   version="1.1"
   id="svg6"
   sodipodi:docname="brave.svg"
   inkscape:export-filename="brave_small.svg"
   inkscape:export-xdpi="95.999992"
   inkscape:export-ydpi="95.999992"
   inkscape:version="1.3 (0e150ed6c4, 2023-07-21)"
   xmlns:inkscape="http://www.inkscape.org/namespaces/inkscape"
   xmlns:sodipodi="http://sodipodi.sourceforge.net/DTD/sodipodi-0.dtd"
   xmlns:xlink="http://www.w3.org/1999/xlink"
   xmlns="http://www.w3.org/2000/svg"
   xmlns:svg="http://www.w3.org/2000/svg"
   xmlns:rdf="http://www.w3.org/1999/02/22-rdf-syntax-ns#"
   xmlns:cc="http://creativecommons.org/ns#"
   xmlns:dc="http://purl.org/dc/elements/1.1/">
  <sodipodi:namedview
     id="namedview6"
     pagecolor="#ffffff"
     bordercolor="#000000"
     borderopacity="0.25"
     inkscape:showpageshadow="2"
     inkscape:pageopacity="0.0"
     inkscape:pagecheckerboard="0"
     inkscape:deskcolor="#d1d1d1"
     inkscape:zoom="3.1367188"
     inkscape:cx="109.03113"
     inkscape:cy="128"
     inkscape:window-width="2560"
     inkscape:window-height="1007"
     inkscape:window-x="0"
     inkscape:window-y="0"
     inkscape:window-maximized="1"
     inkscape:current-layer="svg6" />
  <!-- Generator: Sketch 51.2 (57519) - http://www.bohemiancoding.com/sketch -->
  <title
     id="title1">build-icons/Stable Copy 3</title>
  <desc
     id="desc1">Created with Sketch.</desc>
  <defs
     id="defs6">
    <linearGradient
       x1="0.00011788858"
       y1="119.55213"
       x2="235.77728"
       y2="119.55213"
       id="linearGradient-1"
       gradientTransform="scale(0.92290533,1.0835348)"
       gradientUnits="userSpaceOnUse">
      <stop
         stop-color="#FF5500"
         offset="0%"
         id="stop1" />
      <stop
         stop-color="#FF5500"
         offset="40.9877232%"
         id="stop2" />
      <stop
         stop-color="#FF2000"
         offset="58.1981215%"
         id="stop3" />
      <stop
         stop-color="#FF2000"
         offset="100%"
         id="stop4" />
    </linearGradient>
    <linearGradient
       x1="11.296889"
       y1="46.234234"
       x2="100.51935"
       y2="46.234234"
       id="linearGradient-2"
       gradientTransform="scale(1.980754,0.50485825)"
       gradientUnits="userSpaceOnUse">
      <stop
         stop-color="#FF452A"
         offset="0%"
         id="stop5" />
      <stop
         stop-color="#FF2000"
         offset="100%"
         id="stop6" />
    </linearGradient>
    <path
       d="M 170.27211,25.335939 147.96811,1.0893617e-4 h -39.168 -39.168001 L 47.328109,25.335939 c 0,0 -19.584,-5.446809 -28.832,3.812766 0,0 26.112,-2.360102 35.088,12.255319 0,0 24.208,4.629787 27.472,4.629787 3.264,0 10.336,-2.723404 16.864,-4.902128 6.528001,-2.178723 10.880001,-2.194519 10.880001,-2.194519 0,0 4.352,0.0158 10.88,2.194519 6.528,2.178724 13.6,4.902128 16.864,4.902128 3.264,0 27.472,-4.629787 27.472,-4.629787 8.976,-14.615421 35.088,-12.255319 35.088,-12.255319 -9.248,-9.259575 -28.832,-3.812766 -28.832,-3.812766"
       id="path-3" />
  </defs>
  <g
     id="starting-collection"
     stroke="none"
     stroke-width="1"
     fill="none"
     fill-rule="evenodd"
     transform="matrix(0.09191176,0,0,0.09191176,0.10388057,9.8923658e-5)">
    <g
       id="Build-Icons"
       transform="translate(-70,-350)">
      <g
         id="build-icons/Stable"
         transform="translate(50,350)">
        <g
           id="Logo"
           transform="translate(20.114286)">
          <path
             d="m 209.98411,61.284875 5.984,-14.706383 c 0,0 -7.616,-8.170213 -16.864,-17.429787 -9.248,-9.259575 -28.832,-3.812766 -28.832,-3.812766 L 147.96811,1.0893617e-4 h -39.168 -39.168001 L 47.328109,25.335939 c 0,0 -19.584,-5.446809 -28.832,3.812766 C 9.2481088,38.408279 1.6321088,46.578492 1.6321088,46.578492 l 5.984,14.706383 -7.616,21.787234 c 0,0 22.3992002,84.945701 25.0240002,95.319151 5.168,20.42553 8.704,28.3234 23.392,38.67234 14.688,10.34893 41.344,28.3234 45.696,31.04681 4.352,2.7234 9.792001,7.36245 14.688001,7.36245 4.896,0 10.336,-4.63905 14.688,-7.36245 4.352,-2.72341 31.008,-20.69788 45.696,-31.04681 14.688,-10.34894 18.224,-18.24681 23.392,-38.67234 2.62425,-10.37345 25.024,-95.319151 25.024,-95.319151 z"
             id="Head"
             fill="url(#linearGradient-1)"
             style="fill:url(#linearGradient-1)" />
          <path
             d="m 164.01611,41.404024 c 0,0 28.68838,34.723404 28.68838,42.144681 0,7.421276 -3.60889,9.379949 -7.23737,13.237923 -3.62848,3.857972 -19.47575,20.707132 -21.51085,22.870602 -2.03511,2.16402 -6.27178,5.44463 -3.77971,11.34952 2.49206,5.90488 6.16841,13.41875 2.08025,21.03993 -4.0887,7.62117 -11.0927,12.70795 -15.5807,11.86696 -4.488,-0.84153 -15.028,-6.35642 -18.904,-8.87557 -3.876,-2.51915 -16.16061,-12.66329 -16.16061,-16.54468 0,-3.88086 12.69859,-10.8495 15.04432,-12.43289 2.34682,-1.58284 13.0473,-7.71105 13.26653,-10.11636 0.21869,-2.40585 0.13545,-3.11121 -3.02247,-9.05477 -3.15792,-5.9441 -8.84489,-13.875746 -7.89833,-19.153159 0.94656,-5.276868 10.1184,-8.02097 16.66381,-10.496 6.54432,-2.474485 19.14608,-7.148391 20.71987,-7.874996 1.57488,-0.727149 1.16797,-1.419438 -3.60128,-1.872068 -4.76816,-0.45263 -18.30071,-2.251166 -24.40167,-0.548493 -6.10096,1.702672 -16.524,4.293174 -17.36828,5.666859 -0.84429,1.373685 -1.58903,1.419983 -0.72189,6.158707 0.86659,4.738723 5.33066,27.47697 5.76368,31.51578 0.43357,4.03881 1.28112,6.70883 -3.06816,7.70451 -4.34982,0.99568 -11.67152,2.72449 -14.18752,2.72449 -2.516,0 -9.838241,-1.72881 -14.187521,-2.72449 -4.349824,-0.99568 -3.502272,-3.6657 -3.068704,-7.70451 0.433568,-4.03881 4.897088,-26.777057 5.764224,-31.51578 0.866592,-4.738724 0.121856,-4.785022 -0.721888,-6.158707 -0.844288,-1.373685 -11.267872,-3.964187 -17.368832,-5.666859 -6.10096,-1.702673 -19.63296,0.09586 -24.401664,0.548493 -4.768704,0.45263 -5.175616,1.144919 -3.60128,1.872068 1.574336,0.726605 14.176096,5.400511 20.720416,7.874996 6.544864,2.47503 15.717248,5.219132 16.663808,10.496 0.94656,5.277413 -4.74096,13.209059 -7.898336,19.153159 -3.15792,5.94356 -3.241696,6.64892 -3.022464,9.05477 0.218688,2.40531 10.919712,8.53352 13.265984,10.11636 2.346272,1.58339 15.044317,8.55203 15.044317,12.43289 0,3.88139 -12.284061,14.02553 -16.160061,16.54468 -3.876,2.51915 -14.416,8.03404 -18.904,8.87557 -4.488,0.84099 -11.492,-4.24579 -15.580704,-11.86696 -4.08816,-7.62118 -0.411808,-15.13505 2.079712,-21.03993 2.492064,-5.90489 -1.744064,-9.1855 -3.779712,-11.34952 -2.03456,-2.16347 -17.882368,-19.01263 -21.510848,-22.870602 -3.62848,-3.857974 -7.236832,-5.816647 -7.236832,-13.237923 0,-7.421277 28.688384,-42.144681 28.688384,-42.144681 0,0 24.208,4.629787 27.472,4.629787 3.264,0 10.336,-2.723404 16.864,-4.902128 6.528001,-2.178723 10.880001,-2.194519 10.880001,-2.194519 0,0 4.352,0.0158 10.88,2.194519 6.528,2.178724 13.6,4.902128 16.864,4.902128 3.264,0 27.472,-4.629787 27.472,-4.629787 z M 142.5095,174.22793 c 1.77562,1.11333 0.69252,3.21199 -0.9248,4.35691 -1.61785,1.14492 -23.35664,17.99952 -25.46627,19.86233 -2.11017,1.86335 -5.21043,4.94025 -7.31843,4.94025 -2.108,0 -5.2088,-3.0769 -7.31843,-4.94025 -2.110178,-1.86281 -23.848418,-18.71741 -25.466274,-19.86233 -1.617856,-1.14492 -2.700416,-3.24358 -0.9248,-4.35691 1.77616,-1.11278 7.332032,-3.9217 14.998624,-7.89405 7.665504,-3.97182 17.21978,-7.34884 18.71088,-7.34884 1.4911,0 11.04483,3.37702 18.71142,7.34884 7.66605,3.97235 13.22192,6.78127 14.99808,7.89405 z"
             id="Face"
             fill="#ffffff" />
          <mask
             id="mask-4"
             fill="#ffffff">
            <use
               xlink:href="#path-3"
               id="use6" />
          </mask>
          <use
             id="Top-Head"
             fill="url(#linearGradient-2)"
             xlink:href="#path-3"
             style="fill:url(#linearGradient-2)" />
        </g>
      </g>
    </g>
  </g>
  <metadata
     id="metadata6">
    <rdf:RDF>
      <cc:Work
         rdf:about="">
        <dc:title>build-icons/Stable Copy 3</dc:title>
      </cc:Work>
    </rdf:RDF>
  </metadata>
</svg>
