<?xml version="1.0" encoding="UTF-8" standalone="no"?>
<svg
   xmlns:dc="http://purl.org/dc/elements/1.1/"
   xmlns:cc="http://creativecommons.org/ns#"
   xmlns:rdf="http://www.w3.org/1999/02/22-rdf-syntax-ns#"
   xmlns:svg="http://www.w3.org/2000/svg"
   xmlns="http://www.w3.org/2000/svg"
   id="svg52"
   version="1.1"
   width="20"
   viewBox="0 0 14.142136 14.142136"
   height="20">
  <metadata
     id="metadata58">
    <rdf:RDF>
      <cc:Work
         rdf:about="">
        <dc:format>image/svg+xml</dc:format>
        <dc:type
           rdf:resource="http://purl.org/dc/dcmitype/StillImage" />
        <dc:title></dc:title>
      </cc:Work>
    </rdf:RDF>
  </metadata>
  <defs
     id="defs56" />
  <circle
     cx="7.0710678"
     cy="7.0710678"
     r="7.0710678"
     id="circle2"
     style="fill:#de5833;stroke-width:0.11785113" />
  <path
     d="m 13.057905,4.5372656 c -0.329983,-0.77781 -0.801387,-1.47314 -1.390643,-2.06239 -0.601041,-0.60104 -1.296363,-1.06066 -2.0623949,-1.39065 C 8.8034794,0.74246562 7.9549513,0.57746562 7.0710678,0.57746562 c -0.8720984,0 -1.7324116,0.17678 -2.5337993,0.50675998 -0.7778174,0.3182 -1.4731391,0.78961 -2.0623948,1.39065 -0.6010407,0.60104 -1.0606601,1.29636 -1.3906433,2.06239 -0.34176828,0.80139 -0.50675986,1.64992 -0.50675986,2.5338 0,0.88389 0.17677669,1.73241 0.50675986,2.5338 0.3299832,0.7778204 0.8013877,1.4731404 1.3906433,2.0624004 0.6010408,0.60104 1.2963625,1.06066 2.0623948,1.39064 0.8013877,0.34177 1.6499158,0.50676 2.5337993,0.50676 0.8720984,0 1.7324116,-0.17678 2.5337993,-0.50676 0.7660319,-0.32998 1.4613539,-0.80139 2.0623949,-1.39064 0.601041,-0.60104 1.06066,-1.29637 1.390643,-2.0624004 0.341769,-0.80139 0.50676,-1.64991 0.50676,-2.5338 0,-0.88388 -0.164991,-1.73241 -0.50676,-2.5338 z M 8.4852814,12.904696 c -0.3771236,-0.63639 -1.3670731,-2.41595 -1.3670731,-3.7358804 0,-3.04056 2.0388245,-0.43605 2.0388245,-2.86378 0,-0.57747 -0.2828427,-2.60451 -2.0506096,-3.02877 -0.4360492,-0.57747 -1.4613541,-1.13138 -3.0876997,-0.90746 0,0 0.2710576,0.0825 0.5774706,0.2357 0,0 -0.5892557,0.0825 -0.6128259,0.48319 0,0 1.1667262,-0.0589 1.8266925,0.15321 -1.5202796,0.20035 -2.298097,1.00174 -2.1566757,2.4513 0.200347,2.0624 1.0724453,5.7393504 1.3788583,7.0239304 -2.3098822,-0.82496 -3.9715831,-3.0405604 -3.9715831,-5.6450704 0,-3.31161 2.6870057,-6.01041 6.0104076,-6.01041 3.3234022,0 6.0104072,2.68701 6.0104072,6.01041 -0.01178,2.82843 -1.968113,5.1972404 -4.5961936,5.8336304 z"
     id="path4"
     style="fill:#ffffff;stroke-width:0.11785113" />
  <path
     d="m 6.7410846,8.0492356 c 0,-0.77782 1.0606602,-1.02531 1.4613541,-1.02531 1.0842304,0 2.6162953,-0.69532 2.9934183,-0.68353 0.388909,0.0118 0.636396,0.16499 0.636396,0.34176 0,0.25928 -2.1684603,1.23744 -3.0052033,1.15494 -0.8013877,-0.0707 -0.9899495,0.0118 -0.9899495,0.34177 0,0.28285 0.5774705,0.54212 1.2138666,0.54212 0.9545942,0 1.8856182,-0.42427 2.1684612,-0.22392 0.247487,0.17678 -0.648182,0.81317 -1.6734865,0.81317 -1.0253048,0 -2.8048569,-0.48319 -2.8048569,-1.261 z"
     id="path6"
     style="clip-rule:evenodd;fill:#fed30a;fill-rule:evenodd;stroke-width:0.11785113" />
  <path
     d="m 8.6267027,4.7493956 c -0.2828427,-0.36533 -0.7896025,-0.37712 -0.9663792,0.0472 0.2710576,-0.21214 0.6010407,-0.25928 0.9663792,-0.0472 z"
     id="path8"
     style="fill:#2d4f8d;stroke-width:0.11785113" />
  <path
     d="m 5.4800776,4.7611856 c -0.3889088,-0.2357 -1.03709,-0.25927 -1.0017347,0.48319 0.1885619,-0.45962 0.4478343,-0.54212 1.0017347,-0.48319 z"
     id="path10"
     style="fill:#2d4f8d;stroke-width:0.11785113" />
  <path
     d="m 8.3910005,5.4447256 c -0.2121321,0 -0.3889088,0.17677 -0.3889088,0.38891 0,0.21213 0.1767767,0.3889 0.3889088,0.3889 0.212132,0 0.3889087,-0.17677 0.3889087,-0.3889 0,-0.21214 -0.1767767,-0.38891 -0.3889087,-0.38891 z m 0.1414213,0.36534 c -0.058925,0 -0.1178511,-0.0472 -0.1178511,-0.11786 0,-0.0589 0.04714,-0.11785 0.1178511,-0.11785 0.070711,0 0.1178512,0.0471 0.1178512,0.11785 -0.011785,0.0589 -0.058926,0.11786 -0.1178512,0.11786 z"
     id="path12"
     style="fill:#2d4f8d;stroke-width:0.11785113" />
  <path
     d="m 5.3740115,5.6568556 c -0.2474873,0 -0.4478343,0.20035 -0.4478343,0.44783 0,0.24749 0.200347,0.44784 0.4478343,0.44784 0.2474874,0 0.4478343,-0.20035 0.4478343,-0.44784 0,-0.24748 -0.2003469,-0.44783 -0.4478343,-0.44783 z m 0.1649916,0.41248 c -0.070711,0 -0.1296362,-0.0589 -0.1296362,-0.12964 0,-0.0707 0.058925,-0.12963 0.1296362,-0.12963 0.070711,0 0.1296363,0.0589 0.1296363,0.12963 0,0.0707 -0.058926,0.12964 -0.1296363,0.12964 z"
     id="path14"
     style="fill:#2d4f8d;stroke-width:0.11785113" />
  <path
     d="m 4.3958472,3.7476656 c -0.5656855,0.41248 -0.824958,1.04888 -0.7424622,1.94454 0.200347,2.0624 1.0724453,5.7511404 1.3788583,7.0357204 0.106066,0.0353 0.212132,0.0707 0.318198,0.10606 C 5.1618795,12.056166 4.2544258,8.2613656 3.853732,5.3504456 c -0.1060661,-0.77782 0.2003469,-1.23744 0.5421152,-1.60278 z"
     id="path16"
     style="fill:#d5d7d8;stroke-width:0.11785113" />
  <path
     d="m 5.7982756,3.2409056 c 0.04714,0 0.082496,-0.0118 0.082496,-0.0118 -0.6128259,-0.29463 -1.5792051,-0.30642 -1.8384776,-0.30642 -0.02357,0.0471 -0.047141,0.10607 -0.047141,0.16499 -0.011785,0.0118 1.1313709,-0.0589 1.8031223,0.15321 z"
     id="path18"
     style="fill:#d5d7d8;stroke-width:0.11785113" />
  <path
     d="m 4.690475,2.6045056 c -0.1885618,-0.12963 -0.3417683,-0.21213 -0.4360492,-0.25927 -0.082496,0.0118 -0.1532065,0.0118 -0.2357023,0.0236 0,0 0.2710576,0.0825 0.5774706,0.2357 0,0 -0.011785,0 -0.02357,0 0.082496,0 0.1178511,0 0.1178511,0 z"
     id="path20"
     style="fill:#d5d7d8;stroke-width:0.11785113" />
  <path
     d="m 9.4398755,10.441606 c -0.2003469,-0.0471 -0.9781643,0.50676 -1.2727922,0.7189 -0.011785,-0.0589 -0.02357,-0.10607 -0.035355,-0.12964 -0.035355,-0.11785 -0.7896026,-0.0471 -0.9663793,0.14142 -0.4714045,-0.22392 -1.4142135,-0.65996 -1.4259987,-0.38891 -0.035355,0.35356 0,1.8267 0.1885619,1.93276 0.1414213,0.0825 0.942809,-0.35355 1.3435028,-0.57747 0,0 0,0 0.011785,0 0.2474874,0.0589 0.7071068,0 0.8720984,-0.10607 0.02357,-0.0118 0.035355,-0.0354 0.04714,-0.0589 0.3653385,0.14142 1.154941,0.42426 1.3199326,0.36534 0.2121321,-0.0589 0.1649916,-1.83848 -0.082496,-1.89741 z"
     id="path22"
     style="fill:#67bd47;stroke-width:0.11785113" />
  <path
     d="m 7.2831998,12.138666 c -0.2474873,-0.0471 -0.1649915,-0.29463 -0.1649915,-0.8721 0,0 0,0 0,0 -0.058926,0.0354 -0.1060661,0.0825 -0.1060661,0.12964 0,0.57747 -0.094281,0.83674 0.1649916,0.8721 0.2474874,0.0589 0.7071068,0 0.8956686,-0.10607 0.035355,-0.0236 0.04714,-0.0589 0.058926,-0.11785 -0.1767767,0.10607 -0.6128259,0.15321 -0.8485282,0.0943 z"
     id="path24"
     style="fill:#43a347;stroke-width:0.11785113" />
</svg>
