<svg width="20" height="20" version="1.1" viewBox="0 0 20 20" xmlns="http://www.w3.org/2000/svg" xmlns:xlink="http://www.w3.org/1999/xlink">
 <defs>
  <path id="a" d="m26.395 15.08a0.72 0.72 0 0 1 0.162 0.26c-0.145 0.21-0.214 0.463-0.198 0.717a0.471 0.471 0 0 0 0.227 0.328 2.33 2.33 0 0 0 0.983-0.328c0.33-0.065 0.69-0.095 1.013-0.161 0.324-0.066 1.068-0.661 0.805-1.115-0.162-0.066-0.458-0.168-0.506-0.162-0.48 0.064-0.966 0.03-1.433-0.095a8.835 8.835 0 0 0-1.053 0.555z"/>
 </defs>
 <g transform="translate(16.59,-38.333)" fill-rule="evenodd">
  <path d="m-16.59 48.393c0 5.4893 4.4774 9.9404 10 9.9404 5.5222 0 9.9996-4.451 9.9996-9.9404 0-5.4901-4.4774-9.9404-9.9996-9.9404-5.5231 0-10 4.4502-10 9.9404zm1.8215 3.3691a8.7416 8.7416 0 0 1 1.8981-9.5767 8.8724 8.8724 0 0 1 9.6302-1.9153c3.3041 1.3575 5.4597 4.5605 5.4597 8.1147a8.7392 8.7392 0 0 1-2.5744 6.2043 8.8469 8.8469 0 0 1-6.2347 2.5768h-0.02468c-3.5658 0-6.7827-2.1309-8.1542-5.4038z" fill="#ff7950" stroke-width=".82274"/>
  <path d="m-13.924 48.394c0 4.0257 3.2836 7.2895 7.3339 7.2895 4.0504 0 7.3339-3.2638 7.3339-7.2895 0-4.0257-3.2827-7.2895-7.3339-7.2895-4.0504 0-7.3339 3.2638-7.3339 7.2895z" fill="#36acb8" stroke-width=".82274"/>
  <g fill="#d3da31">
   <path d="m-12.785 44.491c0.09791-0.0181 0.19334-0.02304 0.26492-0.04936 0.14809-0.08227 0.28714-0.181 0.41302-0.29454 0.10696-0.0469 0.19252-0.01645 0.2715 0.01481 0.09873 0.03867 0.18758 0.07898 0.29454-0.03949 0.1917-0.21227-0.07898-0.64338-0.07898-0.91324a0.48624 0.48624 0 0 1 0.04443-0.1629 7.3487 7.3487 0 0 0-1.2094 1.4447zm-1.0654 2.8747a7.1611 7.1611 0 0 0-0.0469 0.42947 7.3471 7.3471 0 0 0-0.02633 0.61294 7.2237 7.2237 0 0 0 0.87128 3.4325c0.07651-0.07405 0.15632-0.12752 0.23284-0.20733 0.1086-0.18676 0.24106-0.37352 0.34966-0.5644 0.22543-0.13658 0.44181-0.2896 0.64585-0.45744 0.0543-0.16208 0.13328-0.34802 0.18758-0.5101 0.05348-0.16208 0.37517-0.37352 0.32498-0.67218-0.12094-0.42371-0.66231-0.47801-0.95849-0.77338-0.13328-0.18594-0.27068-0.41466-0.41631-0.58908a2.5069 2.5069 0 0 0-1.1576-0.75116zm7.9682-4.1729c-0.35378 0.09544-0.673 0.29125-0.91653 0.5644-0.18758 0.29454 0.05348 0.4813-0.29619 0.64338a2.3193 2.3193 0 0 1-0.53725-0.34884 0.49529 0.49529 0 0 0-0.37517 0.21638c-0.02468 0.32334 0.2172 0.3727 0.2172 0.69686-0.13328 0.18676-0.45909 0.21638-0.53807 0.41548-0.07981 0.1991 0 0.5101-0.16208 0.69768-0.24189 0.21556-0.48377 0.45662-0.69933 0.67218a1.5064 1.5064 0 0 0 0.10696 1.8265c0.18347 0.18347 0.41795 0.17689 0.66642 0.17031 0.19252-0.0049 0.39162-0.0099 0.58415 0.07076 0.32498 0.13328 0.37517 0.75198 0.45744 1.0473 0.1629 0.48048-0.13246 0.69686-0.13246 1.1535s0.16208 1.773 0.80875 1.7442c0.72812-0.02468 0.88691-0.75198 1.2917-1.2456 0.17854-0.13328 0.33321-0.29619 0.45827-0.48213 0-0.24024 0.02468-0.5101 0.02468-0.75116 0.16208-0.41548 0.67465-0.5644 0.94122-0.88445 0.26739-0.32005 0.02468-0.53478 0.1629-0.77667a0.024682 0.024682 0 0 0 0.02468-0.02468c0.21638-0.13246 0.41713-0.24106 0.67465-0.37352a4.8295 4.8295 0 0 1 0.32581-0.37435l0.24188-0.07816c0.83261 0.41548 0.53725 1.2868 1.1288 1.7442 0.0543-0.0255 0.07898-0.0543 0.13328-0.07898 0.04525-0.12094 0.07158-0.24682 0.07981-0.37435 0.12341-0.37435 0.49364-0.60965 0.88691-0.56522 0.25916 0.25505 0.45333 0.56851 0.56605 0.91406 0.05512 0.32416-0.16208 0.5101-0.16208 0.77584 0.02468 0.23037 0.11189 0.44675 0.24518 0.63516v-0.0016a7.2294 7.2294 0 0 0 0.4196-2.4287v-0.0033c0-0.1193-0.0033-0.2386-0.0091-0.35625l-0.0033-0.05595a7.2451 7.2451 0 0 0-2.0355-4.6353 3.1371 3.1371 0 0 0-0.48788 0.02468c-0.75692 0.12588-1.5212 0.20568-2.2872 0.24106-0.63516 0-1.0013-0.44675-1.5476-0.44675-0.08227 0-0.16619 0.0091-0.2567 0.03209zm0.14562 3.3708c-0.18676-0.02468-0.41631-0.02468-0.59155-0.05348-0.02468 0-0.97083-0.75198-0.99552-0.80628a0.32087 0.32087 0 0 1 0.18676-0.18594c0.24518 0.10284 0.47308 0.24271 0.67547 0.41466l0.37517 0.07898c0.13328 0.10778 0.27068 0.18676 0.41713 0.29454 0.16455 0.05924 0.33732 0.09544 0.51174 0.10778 0 0.02468 0.02468 0.0543 0.02468 0.07898v0.13328c-0.065 0.01646-0.1267 0.04031-0.18758 0.07076a0.7454 0.7454 0 0 1-0.41631-0.13328z" stroke-width=".82274"/>
   <path d="m-4.457 51.301a0.89514 0.89514 0 0 0-0.45744 0.7273 0.41384 0.41384 0 0 0 0.18676 0.18676c0.29619-0.1086 0.62117-0.5899 0.41631-0.88445a0.24353 0.24353 0 0 0-0.11765-0.03044z" stroke-width=".82274"/>
   <use transform="matrix(.82274 0 0 .82274 -32.164 29.786)" width="100%" height="100%" xlink:href="#a"/>
  </g>
 </g>
</svg>
