<svg width="20" height="20" data-name="Layer 1" version="1.1" viewBox="0 0 20 20" xmlns="http://www.w3.org/2000/svg">
 <defs>
  <style>.cls-1{fill:none;}.cls-2{clip-path:url(#b);}.cls-3{clip-path:url(#a);}.cls-4{fill:#fff;}.cls-5{fill:#cc3548;}.cls-6{fill:#111;}.cls-7{fill:#cc3648;}</style>
  <clipPath id="b">
   <rect class="cls-1" x="4.59" y="1.34" width="256" height="74.93" fill="none"/>
  </clipPath>
  <clipPath id="a">
   <rect class="cls-1" x="4.59" y="1.34" width="256" height="74.93" fill="none"/>
  </clipPath>
 </defs>
 <title>White w red heart</title>
 <rect width="20" height="20" rx="2" fill="#026d72" fill-rule="evenodd"/>
 <g stroke-width=".7572">
  <path d="m6.75 14.975c-1.2603 2.2614-1.1338 3.8274-0.39062 5.0254h0.66211c-0.85306-1.1054-1.0415-2.5158 0.21289-4.7598l-0.48438-0.26562z" fill="#fff"/>
  <path class="cls-6" d="m16.299 9.8638a3.4907 3.4907 0 0 0-1.6583-3.6043 3.5891 3.5891 0 0 0-3.1121-0.30288 3.5134 3.5134 0 0 0-2.2716-2.2716 3.5513 3.5513 0 0 0-3.9905 1.2872 4.9975 4.9975 0 0 0-0.65119 3.9905 14.008 14.008 0 0 0 1.6128 4.1116l-1.0222 1.0601a0.24988 0.24988 0 0 0 0.053004 0.38617l3.1424 1.7491a0.24231 0.24231 0 0 0 0.35589-0.15901l0.34074-1.5826c0.46947-0.07572 0.9465-0.15901 1.4084-0.26502a10.502 10.502 0 0 0 3.9299-1.6583 4.5432 4.5432 0 0 0 1.8627-2.7259" fill="#111"/>
  <path class="cls-7" d="m6.2279 14.165 0.47704-0.49975a2.4382 2.4382 0 0 0 1.6204 0.7572l-0.16658 0.7572z" fill="#cc3648"/>
  <path class="cls-7" d="m15.542 9.7048a3.7027 3.7027 0 0 1-1.5598 2.2716 9.8966 9.8966 0 0 1-3.6421 1.5144c-0.38617 0.09086-0.7572 0.15901-1.1585 0.21959-1.31 0-1.6128-0.20444-2.1656-0.84807a13.41 13.41 0 0 1-1.6507-4.0813 4.2782 4.2782 0 0 1 0.53004-3.4074 2.7184 2.7184 0 0 1 3.1197-0.98436 2.7411 2.7411 0 0 1 1.9157 2.5593v0.1893a1.416 1.416 0 0 1 0.18173-0.12115 2.7714 2.7714 0 0 1 3.1045-0.1363 2.6956 2.6956 0 0 1 1.2948 2.8244" fill="#cc3648"/>
 </g>
</svg>
