<?xml version="1.0" encoding="UTF-8" standalone="no"?>
<svg
   xmlns:ns="&amp;ns_sfw;"
   xmlns:dc="http://purl.org/dc/elements/1.1/"
   xmlns:cc="http://creativecommons.org/ns#"
   xmlns:rdf="http://www.w3.org/1999/02/22-rdf-syntax-ns#"
   xmlns:svg="http://www.w3.org/2000/svg"
   xmlns="http://www.w3.org/2000/svg"
   height="20"
   width="20"
   xml:space="preserve"
   viewBox="0 0 20 20.000001"
   y="0px"
   x="0px"
   id="Livello_1"
   version="1.1"><defs
   id="defs19">
	
	
	
	
</defs>
<style
   id="style2"
   type="text/css">
	.st0{fill:#4285F4;}
	.st1{fill:#34A853;}
	.st2{fill:#FBBC04;}
	.st3{fill:#EA4335;}
</style>
<metadata
   id="metadata4">
	<ns:sfw>
		<ns:slices />
		<ns:sliceSourceBounds
   y="110.1"
   x="0.1"
   width="533.5"
   height="544.3"
   bottomLeftOrigin="true" />
	</ns:sfw>
<rdf:RDF><cc:Work
     rdf:about=""><dc:format>image/svg+xml</dc:format><dc:type
       rdf:resource="http://purl.org/dc/dcmitype/StillImage" /><dc:title></dc:title></cc:Work></rdf:RDF></metadata>
<path
   class="st0"
   d="m 19.604334,10.22999 c 0,-0.6797506 -0.05511,-1.3631806 -0.172693,-2.0319006 H 9.9996619 V 12.04878 h 5.4012501 c -0.224133,1.24192 -0.9443,2.34054 -1.99883,3.03866 v 2.49854 h 3.222379 c 1.892275,-1.74163 2.979873,-4.31366 2.979873,-7.35599 z"
   id="path6"
   style="fill:#4285f4;stroke-width:0.0367432" /><path
   class="st1"
   d="m 9.9996619,20 c 2.6969511,0 4.9713551,-0.88551 6.6284731,-2.41402 l -3.222378,-2.49854 c -0.896535,0.60994 -2.053945,0.95532 -3.402421,0.95532 -2.608767,0 -4.8207076,-1.76 -5.6143608,-4.12626 H 1.0637156 v 2.5757 C 2.7612515,17.8689 6.2187866,20 9.9996619,20 Z"
   id="path8"
   style="fill:#34a853;stroke-width:0.0367432" /><path
   class="st2"
   d="m 4.3853009,11.9165 c -0.4188725,-1.24192 -0.4188725,-2.5867206 0,-3.8286406 v -2.5757 H 1.0637156 c -1.41828747,2.82555 -1.41828747,6.1544906 0,8.9800406 z"
   id="path10"
   style="fill:#fbbc04;stroke-width:0.0367432" /><path
   class="st3"
   d="m 9.9996619,3.9579194 c 1.4256361,-0.022 2.8035061,0.51441 3.8359901,1.49913 v 0 l 2.854947,-2.85495 C 14.882833,0.90455938 12.483502,-0.02871062 9.9996619,6.793867e-4 6.2187866,6.793867e-4 2.7612515,2.1317894 1.0637156,5.5121594 l 3.3215853,2.5757 c 0.7899788,-2.36994 3.0055938,-4.12994 5.614361,-4.12994 z"
   id="path12"
   style="fill:#ea4335;stroke-width:0.0367432" />
</svg>