<?xml version="1.0" encoding="UTF-8" standalone="no"?>
<svg
   id="Layer_1"
   data-name="Layer 1"
   viewBox="0 0 20 20"
   version="1.1"
   sodipodi:docname="presearch.svg"
   width="20"
   height="20"
   inkscape:version="1.2 (dc2aedaf03, 2022-05-15)"
   xmlns:inkscape="http://www.inkscape.org/namespaces/inkscape"
   xmlns:sodipodi="http://sodipodi.sourceforge.net/DTD/sodipodi-0.dtd"
   xmlns="http://www.w3.org/2000/svg"
   xmlns:svg="http://www.w3.org/2000/svg"
   xmlns:rdf="http://www.w3.org/1999/02/22-rdf-syntax-ns#"
   xmlns:cc="http://creativecommons.org/ns#"
   xmlns:dc="http://purl.org/dc/elements/1.1/">
  <defs
     id="defs15" />
  <sodipodi:namedview
     id="namedview13"
     pagecolor="#ffffff"
     bordercolor="#666666"
     borderopacity="1.0"
     inkscape:showpageshadow="2"
     inkscape:pageopacity="0.0"
     inkscape:pagecheckerboard="0"
     inkscape:deskcolor="#d1d1d1"
     showgrid="false"
     inkscape:zoom="24.825397"
     inkscape:cx="4.6122123"
     inkscape:cy="8.3382353"
     inkscape:window-width="1920"
     inkscape:window-height="1011"
     inkscape:window-x="0"
     inkscape:window-y="0"
     inkscape:window-maximized="1"
     inkscape:current-layer="Layer_1" />
  <title
     id="title2">presearch-pre-logo</title>
  <g
     id="g181"
     transform="matrix(1.5289939,0,0,1.5289939,-14.089996,-14.044365)">
    <rect
       x="10.102522"
       y="10.053234"
       width="11.294957"
       height="11.294957"
       style="fill:#ffffff;stroke-width:0.410726"
       id="rect4" />
    <path
       d="m 13.930485,17.245042 h 1.207534 a 2.332922,2.332922 0 0 0 0.998063,-0.2259 2.4972123,2.4972123 0 0 0 0.776272,-0.595552 2.7559695,2.7559695 0 0 0 0.492871,-0.866631 2.8504364,2.8504364 0 0 0 0.180719,-1.002171 2.4889978,2.4889978 0 0 0 -0.193041,-0.969312 3.0024049,3.0024049 0 0 0 -0.521622,-0.850203 2.5998937,2.5998937 0 0 0 -0.7927,-0.611981 2.1439882,2.1439882 0 0 0 -1.002171,-0.238221 h -3.179017 v 7.717536 h 2.053628 z m 0,-3.495276 h 1.026814 a 0.55037244,0.55037244 0 0 1 0.373761,0.180719 0.90359655,0.90359655 0 0 1 0.193041,0.653054 0.87073849,0.87073849 0 0 1 -0.176612,0.62841 0.46001279,0.46001279 0 0 1 -0.34501,0.18072 h -1.071994 z"
       style="fill:#2d8eff;stroke-width:0.410726"
       id="path6" />
    <path
       d="M 9.2810702,10.024484 V 21.475516 A 0.74341352,0.74341352 0 0 0 10.024484,22.21893 H 21.475516 A 0.74341352,0.74341352 0 0 0 22.21893,21.475516 V 10.024484 A 0.74341352,0.74341352 0 0 0 21.475516,9.2810702 H 10.024484 A 0.74341352,0.74341352 0 0 0 9.2810702,10.024484 Z M 19.959938,20.703352 h -8.428091 a 0.74341352,0.74341352 0 0 1 -0.743413,-0.743414 v -8.428091 a 0.74341352,0.74341352 0 0 1 0.743413,-0.743413 h 8.428091 a 0.74341352,0.74341352 0 0 1 0.743414,0.743413 v 8.428091 a 0.74341352,0.74341352 0 0 1 -0.743414,0.735199 z"
       style="fill:#2d8eff;stroke-width:0.410726"
       id="path8" />
    <rect
       x="14.838189"
       y="18.152746"
       width="4.7603111"
       height="1.4621835"
       style="fill:#2d8eff;stroke-width:0.410726"
       id="rect10" />
  </g>
  <metadata
     id="metadata121">
    <rdf:RDF>
      <cc:Work
         rdf:about="">
        <dc:title>presearch-pre-logo</dc:title>
      </cc:Work>
    </rdf:RDF>
  </metadata>
</svg>
