<?xml version="1.0" encoding="UTF-8" standalone="no"?>
<svg
   xmlns:dc="http://purl.org/dc/elements/1.1/"
   xmlns:cc="http://creativecommons.org/ns#"
   xmlns:rdf="http://www.w3.org/1999/02/22-rdf-syntax-ns#"
   xmlns:svg="http://www.w3.org/2000/svg"
   xmlns="http://www.w3.org/2000/svg"
   height="20"
   width="20"
   version="1.1"
   viewBox="0 0 19.999999 20"
   data-name="Calque 1"
   id="Calque_1">
  <metadata
     id="metadata36">
    <rdf:RDF>
      <cc:Work
         rdf:about="">
        <dc:format>image/svg+xml</dc:format>
        <dc:type
           rdf:resource="http://purl.org/dc/dcmitype/StillImage" />
        <dc:title>logo-home2</dc:title>
      </cc:Work>
    </rdf:RDF>
  </metadata>
  <defs
     id="defs7">
    <linearGradient
       gradientUnits="userSpaceOnUse"
       gradientTransform="matrix(0.18136343,0,0,-0.18136343,-6.5368483,33.22434)"
       y2="152.43639"
       x2="116.50566"
       y1="152.43639"
       x1="36.40448"
       id="sans">
      <stop
         id="stop2"
         stop-color="#ffda12"
         offset="0" />
      <stop
         id="stop4"
         stop-color="#efe333"
         offset="1" />
    </linearGradient>
  </defs>
  <title
     id="title9">logo-home2</title>
  <path
     style="fill:#4ba2ea;stroke-width:0.18136343"
     id="path21"
     d="m 15.861388,19.33529 c 0.09153,0.1896 0.183063,0.47073 0.379204,0.58188 a 0.90779287,0.90779287 0 0 0 0.45766,0.0588 h 2.837489 a 0.46546017,0.46546017 0 0 0 0.411892,-0.67995 c -0.176526,-0.33998 -0.359589,-0.67341 -0.53611,-1.01339 l -1.091846,-2.05947 a 1.0426039,1.0426039 0 0 1 -0.137292,-0.30075 c 0,0 -0.03923,-0.0654 0.01308,-0.2419 0.0523,-0.13077 0.712641,-1.43182 0.75187,-1.56258 0.268055,-0.83033 3.530516,-8.6955399 -5.727276,-9.4997199 a 2.0965485,2.0965485 0 0 1 0.202679,0.12423 6.5900342,6.5900342 0 0 1 1.974475,1.96793 6.4769886,6.4769886 0 0 1 0.496888,6.0280399 6.2962708,6.2962708 0 0 1 -0.49035,0.9284 6.4120731,6.4120731 0 0 1 -1.163762,1.3599 0.6801854,0.6801854 0 0 0 -0.241906,0.30075 0.45230588,0.45230588 0 0 0 0.01961,0.33344 z" />
  <path
     style="fill:#ff3b4a;stroke-width:0.18136343"
     id="path23"
     d="m 0.0655927,9.0575501 c 1.490662,-1.01339 2.994403,-1.07877 3.46513,0.32037 a 0.29317942,0.29317942 0 0 0 -0.0065,0.0719 6.4619916,6.4619916 0 0 0 5.563843,7.1590999 6.3846546,6.3846546 0 0 0 1.7652593,-0.007 c 0.143838,-0.0196 0.281134,-0.0458 0.424969,-0.0719 a 0.85286696,0.85286696 0 0 1 0.313823,-0.0262 C 11.755567,18.50444 5.4790917,19.0275 1.5955217,14.24168 0.6344357,13.0583 0.1702397,10.67193 0.0656307,9.0570401" />
  <path
     style="fill:#65cee7;stroke-width:0.18136343"
     id="path25"
     d="m 19.45075,13.10458 a 9.4665996,9.4665996 0 0 1 -0.594957,1.45798 c -0.0523,0.0981 -0.09807,0.1896 -0.150374,0.28767 -0.07192,0.13076 -0.150374,0.26805 -0.22883,0.39882 a 2.3727179,2.3727179 0 0 0 -0.281133,0.46419 l 0.0065,-0.0262 a 4.0950048,4.0950048 0 0 0 0.13733,-0.39876 8.5991256,8.5991256 0 0 0 -5.119251,-10.6634799 c -0.03269,-0.0196 -0.05884,-0.0327 -0.09153,-0.0523 v 0 c 0.248442,0.13076 -1.176839,-3.4585999 1.784871,-2.9944 0.124222,0.0654 0.248443,0.13729 0.372668,0.20921 a 9.4087102,9.4087102 0 0 1 2.262146,1.89602 9.503342,9.503342 0 0 1 1.673727,2.7525 9.9846008,9.9846008 0 0 1 0.666873,3.43898 9.9894577,9.9894577 0 0 1 -0.438038,3.2297699 z" />
  <path
     style="fill:#87c966;stroke-width:0.18136343"
     id="path27"
     d="m 15.704474,3.0360601 a 1.7813516,1.7813516 0 0 1 -0.124221,0.64726 1.7512235,1.7512235 0 0 1 -1.621422,1.09839 1.7767576,1.7767576 0 0 1 -0.830325,-0.20922 v 0 a 6.5700715,6.5700715 0 0 0 -2.615197,-0.81071 6.354249,6.354249 0 0 0 -3.3278373,0.59496 6.2891106,6.2891106 0 0 0 -1.39913,0.8957 6.5078639,6.5078639 0 0 0 -1.065692,1.13761 6.5761817,6.5761817 0 0 0 -1.157227,2.73943 c -3.184006,-3.89665 3.353993,-10.17313 10.6896203,-7.8129099 v 0 c 0.124221,0.0327 0.254981,0.0719 0.379204,0.1111399 0.09153,0.0458 0.189601,0.0915 0.281133,0.14384 h 0.0065 a 1.7558936,1.7558936 0 0 1 0.784556,1.46451 z" />
  <path
     style="fill:url(#sans);stroke-width:0.18136343"
     id="path29"
     d="m 14.593018,1.4081001 a 2.0059176,2.0059176 0 0 0 -0.339977,-0.0915 v 0 a 8.5474026,8.5474026 0 0 0 -1.699879,-0.28113 c -0.169989,-0.0131 -0.339977,-0.0131 -0.516502,-0.0131 a 8.52234,8.52234 0 0 0 -8.4732413,8.10711 0.51283411,0.51283411 0 0 0 -0.01308,0.0915 v 0 c -0.0065,0.0523 -0.01308,0.10461 -0.01962,0.15037 v 0 A 1.7484432,1.7484432 0 0 1 1.8112267,10.79664 h -0.0523 A 1.7433433,1.7433433 0 0 1 0.0655927,9.0510001 c 0,-0.0785 0.0065,-0.15038 0.01308,-0.2223 v 0 a 9.6840816,9.6840816 0 0 1 0.876091,-2.97478 9.3541362,9.3541362 0 0 1 1.981004,-2.74596 10.050182,10.050182 0 0 1 2.798256,-1.8894799 9.9285758,9.9285758 0 0 1 3.301701,-0.82379004 11.63629,11.63629 0 0 1 1.9679373,0.0131 9.7364466,9.7364466 0 0 1 1.366441,0.21575 9.990963,9.990963 0 0 1 2.222919,0.78455994 z" />
  <path
     style="fill:#af27cc;stroke-width:0.18136343"
     id="path31"
     d="m 13.030438,19.32221 c -0.09153,0.26153 -0.35959,0.30729 -0.601496,0.36613 -0.287671,0.0719 -0.575343,0.12422 -0.869552,0.16999 -0.529581,0.0784 -1.065692,0.11114 -1.5952733,0.13729 a 8.8941078,8.8941078 0 0 1 -1.667189,-0.10461 11.094605,11.094605 0 0 1 -1.719492,-0.39228 9.4320426,9.4320426 0 0 1 -3.628587,-2.14446 9.2716775,9.2716775 0 0 1 -1.425283,-1.72603 9.5871936,9.5871936 0 0 1 -1.281446,-3.0794 11.201854,11.201854 0 0 1 -0.183065,-3.4651299 v -0.0262 a 8.4558884,8.4558884 0 0 0 7.825981,7.9567399 c 0.228829,0.0196 0.457659,0.0262 0.693027,0.0262 a 8.4927886,8.4927886 0 0 0 3.0074783,-0.54265 0.16631026,0.16631026 0 0 1 0.04577,0.0131 0.45237117,0.45237117 0 0 1 0.281133,0.25498 c 0.215753,0.42496 0.431509,0.84994 0.640722,1.28144 0.0065,0.0131 0.01308,0.0327 0.01961,0.0458 0.111147,0.21575 0.215754,0.43805 0.3269,0.6538 0.09807,0.18306 0.209219,0.35959 0.130762,0.57534 z" />
</svg>
