<svg width="20" height="20" version="1.1" viewBox="0 0 20 20" xmlns="http://www.w3.org/2000/svg" xmlns:xlink="http://www.w3.org/1999/xlink">
 <defs>
  <linearGradient id="linearGradient842" x1="2" x2="18" y1="1122.5" y2="1102.5" gradientUnits="userSpaceOnUse">
   <stop stop-color="#21a397" offset="0"/>
   <stop stop-color="#5bb068" offset="1"/>
  </linearGradient>
  <linearGradient id="linearGradient850" x1="18" x2="2" y1="1122.5" y2="1102.5" gradientUnits="userSpaceOnUse">
   <stop stop-color="#35a886" offset="0"/>
   <stop stop-color="#47ac78" offset="1"/>
  </linearGradient>
 </defs>
 <g transform="translate(0 -1102.5)" shape-rendering="auto">
  <path d="m4.0664 1102.5a2.0002 2.0002 0 0 0-1.666 3.2208l12 16a2.0002 2.0002 0 1 0 3.1992-2.3985l-12-16a2.0002 2.0002 0 0 0-1.5332-0.8223z" color="#000000" color-rendering="auto" dominant-baseline="auto" fill="url(#linearGradient850)" image-rendering="auto" solid-color="#000000" style="font-feature-settings:normal;font-variant-alternates:normal;font-variant-caps:normal;font-variant-ligatures:normal;font-variant-numeric:normal;font-variant-position:normal;isolation:auto;mix-blend-mode:normal;shape-padding:0;text-decoration-color:#000000;text-decoration-line:none;text-decoration-style:solid;text-indent:0;text-orientation:mixed;text-transform:none;white-space:normal"/>
  <path d="m10.504 1109.9-2.5 3.332 2.5 3.332 2.5-3.332z" color="#000000" color-rendering="auto" dominant-baseline="auto" image-rendering="auto" opacity=".2" solid-color="#000000" style="font-feature-settings:normal;font-variant-alternates:normal;font-variant-caps:normal;font-variant-ligatures:normal;font-variant-numeric:normal;font-variant-position:normal;isolation:auto;mix-blend-mode:normal;shape-padding:0;text-decoration-color:#000000;text-decoration-line:none;text-decoration-style:solid;text-indent:0;text-orientation:mixed;text-transform:none;white-space:normal"/>
  <path d="m16.074 1102.5a2.0002 2.0002 0 0 0-1.6738 0.8223l-12 16a2.0002 2.0002 0 1 0 3.1992 2.3985l12-16a2.0002 2.0002 0 0 0-1.5254-3.2208z" color="#000000" color-rendering="auto" dominant-baseline="auto" fill="url(#linearGradient842)" image-rendering="auto" solid-color="#000000" style="font-feature-settings:normal;font-variant-alternates:normal;font-variant-caps:normal;font-variant-ligatures:normal;font-variant-numeric:normal;font-variant-position:normal;isolation:auto;mix-blend-mode:normal;shape-padding:0;text-decoration-color:#000000;text-decoration-line:none;text-decoration-style:solid;text-indent:0;text-orientation:mixed;text-transform:none;white-space:normal"/>
 </g>
</svg>
