<?xml version="1.0" encoding="UTF-8" standalone="no"?>
<svg xmlns="http://www.w3.org/2000/svg" width="400" height="400">
<path style="fill:#8ec63f" d="m 0,199.99985 v -200 h 174.39861 174.39863 l 16.35138,19.17988 c 8.99326,10.54893 20.51388,24.04546 25.60138,29.9923 L 400,59.98445 V 229.99215 400 H 199.99999 0 Z m 126.76509,62.24999 c 0.14581,-16.0875 0.51236,-29.24999 0.81456,-29.24999 0.30221,0 1.7206,1.39179 3.152,3.09289 6.70483,7.9683 15.88176,11.2818 31.26834,11.2903 11.20244,0.01 11.69748,-0.089 19.13224,-3.6694 5.40066,-2.6009 9.07357,-5.2527 12.56176,-9.0694 4.38365,-4.79636 6.44659,-8.2419 12.23981,-20.44291 1.50461,-3.16882 1.58585,-2.61834 2.06619,14 l 0.5,17.29851 h 16 l 0.53813,-34.49999 c 0.29598,-18.975 0.93322,-35.625 1.4161,-37 2.12323,-6.04588 8.52203,-13.51725 14.41812,-16.83488 3.10265,-1.74581 11.73209,-2.60148 17.50512,-1.73577 4.89795,0.7345 9.75802,4.58881 11.95965,9.48469 0.78951,1.75569 1.32341,15.10767 1.66288,41.58596 l 0.5,38.99999 16.3644,-1e-5 0.31781,-36.25201 c 0.34697,-39.57856 0.29882,-39.23701 7.23517,-46.59168 4.49776,-4.76901 8.68018,-6.68171 16.41852,-7.50848 9.52704,-1.01789 17.41833,1.72165 20.26137,7.03393 2.34528,4.38219 3.83233,13.56379 3.86712,23.87713 0.039,11.55425 -0.25575,12.31993 -6.07536,15.78338 -7.66974,4.56454 -12.96718,16.71003 -10.92745,25.05348 1.67947,6.86985 3.49963,10.21496 7.72552,14.19826 5.16623,4.8696 9.51787,6.4183 17.81291,6.3394 10.83184,-0.103 17.16329,-4.0156 22.08868,-13.65015 1.81064,-3.54177 2.41132,-6.32125 2.41132,-11.15771 0,-10.1747 -4.08604,-16.73973 -14.39319,-23.12553 -1.36884,-0.84806 -1.66872,-3.81081 -1.97371,-19.5 -0.36842,-18.95194 -0.85028,-21.65877 -5.12083,-28.76608 -2.28131,-3.79669 -7.65281,-7.59628 -13.73306,-9.71423 -6.35922,-2.21512 -22.93344,-2.0219 -29.40291,0.34277 -5.83244,2.13183 -13.19987,7.35402 -16.09169,11.40614 l -1.97584,2.76859 -3.90439,-5.18059 c -2.61715,-3.4726 -5.71769,-6.10912 -9.40439,-7.99697 -4.93733,-2.52826 -6.52449,-2.8186 -15.51412,-2.83801 -13.81676,-0.0298 -22.69581,3.48301 -30.04965,11.88862 -2.97846,3.40446 -4.43623,1.92201 -4.43623,-4.51132 v -5.48305 l -7.75,0.29207 -7.75,0.29206 -0.5,17.42834 c -0.48545,16.92106 -0.5466,17.32855 -2.10094,14 -5.75345,-12.3208 -7.89131,-15.88609 -12.53037,-20.89682 -5.19529,-5.61154 -12.19355,-9.85324 -19.86869,-12.04258 -4.60153,-1.31259 -23.10601,-0.84883 -28.63167,0.71757 -5.09614,1.44464 -14.54206,7.93258 -16.58542,11.39171 -0.94277,1.59598 -2.0073,2.90178 -2.36563,2.90178 -0.35833,0 -1.82623,-1.77513 -3.262,-3.94472 -2.93401,-4.43359 -8.92698,-8.32409 -16.23974,-10.54247 -7.510813,-2.27846 -29.49992,-2.05356 -37.32458,0.38175 -14.45644,4.49935 -23.80796,14.91723 -24.38251,27.16288 L 44.5,173.49985 60.687516,173.30187 c 0.803472,-3.59297 2.019772,-7.30029 3.95762,-9.92971 2.511971,-3.35077 5.955727,-6.22145 9.123204,-7.10786 1.50241,-0.42045 7.68166,-0.76445 13.73166,-0.76445 13.06303,0 16.46353,1.42936 20.25261,8.51297 4.23325,7.914 1.3853,15.62339 -6.67835,18.07816 -2.936629,0.89399 -17.87125,3.71746 -34.78116,6.57559 -1.76379,0.29811 -6.47394,2.18256 -10.46699,4.18765 -11.61141,5.83062 -15.80931,12.82921 -15.82054,26.37539 -0.01,12.05195 5.39852,20.68483 15.99443,25.52973 4.86855,2.2261 6.8777,2.5215 17.5,2.5726 9.00493,0.043 13.24794,-0.381 16.999997,-1.7004 5.802189,-2.0403 12.593343,-5.8343 14.452173,-8.0741 0.71099,-0.8567 2.13762,-1.5576 3.17027,-1.5576 1.79095,0 1.87756,1.2609 1.87756,27.3333 0,15.03336 0.31726,27.65066 0.70503,28.03846 0.38777,0.3877 4.10027,0.5752 8.25,0.4166 l 7.54496,-0.2884 z m 211.65487,-29.13567 c -4.06912,-2.48134 -6.80088,-8.27032 -5.97645,-12.66492 0.9143,-4.87361 7.68801,-10.4494 12.69438,-10.4494 3.00215,0 4.59228,0.7747 7.74393,3.77279 4.83283,4.59736 5.83176,7.95653 3.85845,12.97497 -2.89234,7.35563 -11.68659,10.41183 -18.32031,6.36656 z M 68.40757,231.39009 c -2.25083,-0.79852 -5.40083,-2.81754 -7,-4.48671 -2.57002,-2.68252 -2.90739,-3.75283 -2.90602,-9.21919 10e-4,-4.74646 0.50721,-6.89371 2.1764,-9.23536 2.9624,-4.15582 10.49639,-7.98337 18.32205,-9.30826 3.575,-0.60526 10.774997,-1.81107 15.999997,-2.67959 5.225003,-0.86852 10.737503,-1.82865 12.250003,-2.13363 l 2.75,-0.5545 v 7.67068 c 0,10.48289 -1.51296,15.72143 -6.01905,20.84062 -7.989936,9.07705 -24.05987,13.19059 -35.57338,9.10594 z m 80.9045,0.26158 c -9.09957,-2.50269 -16.30272,-9.82811 -20.39806,-20.74429 -2.53392,-6.7542 -3.04526,-23.83353 -0.94031,-31.40753 5.08162,-18.28461 18.88885,-27.39827 36.47978,-24.07901 15.07663,2.84483 25.56543,18.50829 25.49902,38.07901 -0.0515,15.18552 -5.36839,27.94349 -14.24196,34.17405 -7.35011,5.16087 -16.87727,6.59644 -26.39847,3.97777 z"/>
</svg>
