<?xml version="1.0" encoding="UTF-8" standalone="yes"?>
<svg xmlns="http://www.w3.org/2000/svg" width="400" height="400">
  <path style="fill:#ffffff" d="M 314.96264,327.5073 V 82.76688 l 34.30079,39.24397 v 76.34781 l 50.02198,129.14864 z"/>
  <path style="fill:#f1af2f" d="M 314.96264,82.76688 H 187.76392 L 314.96264,50.65814 Z"/>
  <path style="fill:#1a181d" d="M 187.76392,82.76688 314.96264,1.42477 h 50.73661 C 381.21335,1.42477 400,18.37439 400,39.24185 L 399.28541,327.5073 349.26343,198.35866 V 122.01085 L 314.96264,82.76688 V 50.65814 Z"/>
  <path style="fill:#204579" d="M 0.54104054,-1.2e-4 V 328.9321 H 155.60915 c 28.05661,0 40.01758,-18.7728 40.01758,-42.0961 V 163.39695 c 0,-20.47109 -0.004,-37.81948 -30.73222,-37.81948 v -92.7608 c 0,-17.05551 -12.94653,-32.81679 -32.86601,-32.81679 z M 39.839553,39.95749 h 72.891397 c 8.12858,0 10.71565,5.41746 10.71565,12.12754 v 63.50303 c 0,6.08275 -4.29928,9.98941 -10.71565,9.98941 H 39.839553 Z m 0,123.43946 H 132.0285 c 15.73853,0 23.58065,3.53625 23.58065,22.47615 v 76.69984 c 0,14.79071 -5.36456,24.26306 -23.58065,24.26306 H 39.839553 Z"/>
  <path style="fill:#ffffff" d="M 343.36133,15.802684 A 18.007912,17.980925 0 0 0 325.35352,33.783153 18.007912,17.980925 0 0 0 343.36133,51.763622 18.007912,17.980925 0 0 0 361.37109,33.783153 18.007912,17.980925 0 0 0 343.36133,15.802684 Z"/>
  <path style="fill:#181617" d="m 343.00977,23.722606 a 10.004395,9.9894028 0 0 0 -10.00391,9.990235 10.004395,9.9894028 0 0 0 10.00391,9.988281 10.004395,9.9894028 0 0 0 10.00585,-9.988281 10.004395,9.9894028 0 0 0 -10.00585,-9.990235 z"/>
  <path style="fill:#000000" d="m 18.322266,349.4082 c -5.057778,0 -9.1206129,1.2726 -12.1914066,3.8203 -3.0482144,2.5476 -4.5722657,5.7375 -4.5722656,9.5703 0,3.8327 1.4438255,6.8656 4.3339843,9.0976 2.8901588,2.2095 6.7752009,4.025 11.6523439,5.4453 4.651349,1.3528 7.767101,2.7059 9.347656,4.0586 1.580556,1.3528 2.371094,3.1789 2.371094,5.4786 0,2.3898 -0.925836,4.2944 -2.777344,5.7148 -1.828929,1.3978 -4.447938,2.0957 -7.857422,2.0957 -3.161111,0 -5.972443,-0.7657 -8.433594,-2.2988 -2.4611504,-1.5331 -3.6933589,-3.9786 -3.6933589,-7.3379 H 0 c 0,3.2691 0.91521199,6.0199 2.7441406,8.2519 1.851508,2.2095 4.1999218,3.8767 7.0449219,5.0039 2.8450005,1.1273 5.7916295,1.6915 8.8398435,1.6915 5.193254,0 9.357562,-1.1942 12.496094,-3.584 3.138532,-2.3899 4.708984,-5.5924 4.708984,-9.6055 0,-3.8327 -1.310481,-6.9209 -3.929687,-9.2656 -2.596627,-2.3448 -6.682662,-4.3066 -12.259766,-5.8848 -4.064286,-1.1273 -7.010915,-2.3786 -8.839843,-3.7539 -1.8063498,-1.3753 -2.710938,-3.0996 -2.710938,-5.1738 0,-2.2771 0.8369394,-4.1711 2.507812,-5.6817 1.670874,-1.5331 4.243481,-2.2988 7.720704,-2.2988 3.680436,0 6.413495,0.9014 8.197265,2.7051 1.78377,1.8036 2.675781,4.0795 2.675781,6.8301 h 6.501954 c 0,-3.8328 -1.511475,-7.2708 -4.53711,-10.3145 -3.003055,-3.0436 -7.283366,-4.5644 -12.83789,-4.5644 z m 114.384764,0 c -5.05778,0 -9.12256,1.2726 -12.19336,3.8203 -3.04821,2.5476 -4.57226,5.7375 -4.57226,9.5703 0,3.8327 1.44577,6.8656 4.33593,9.0976 2.89016,2.2095 6.77325,4.025 11.65039,5.4453 4.65135,1.3528 7.76711,2.7059 9.34766,4.0586 1.58056,1.3528 2.37109,3.1789 2.37109,5.4786 0,2.3898 -0.92583,4.2944 -2.77734,5.7148 -1.82893,1.3978 -4.44794,2.0957 -7.85742,2.0957 -3.16111,0 -5.97244,-0.7657 -8.4336,-2.2988 -2.46115,-1.5331 -3.6914,-3.9786 -3.6914,-7.3379 h -6.50391 c 0,3.2691 0.91521,6.0199 2.74414,8.2519 1.85151,2.2095 4.19992,3.8767 7.04493,5.0039 2.845,1.1273 5.79162,1.6915 8.83984,1.6915 5.19325,0 9.35951,-1.1942 12.49805,-3.584 3.13853,-2.3899 4.70703,-5.5924 4.70703,-9.6055 0,-3.8327 -1.30853,-6.9209 -3.92774,-9.2656 -2.59662,-2.3448 -6.68461,-4.3066 -12.26172,-5.8848 -4.06428,-1.1273 -7.01091,-2.3786 -8.83984,-3.7539 -1.80635,-1.3753 -2.70898,-3.0996 -2.70898,-5.1738 0,-2.2771 0.83498,-4.1711 2.50586,-5.6817 1.67087,-1.5331 4.24543,-2.2988 7.72265,-2.2988 3.68044,0 6.41154,0.9014 8.19531,2.7051 1.78377,1.8036 2.67578,4.0795 2.67578,6.8301 h 6.50391 c 0,-3.8328 -1.51343,-7.2708 -4.53906,-10.3145 -3.00306,-3.0436 -7.28141,-4.5644 -12.83594,-4.5644 z m 246.65039,0 c -5.05778,0 -9.12256,1.2726 -12.19336,3.8203 -3.04821,2.5476 -4.57226,5.7375 -4.57226,9.5703 0,3.8327 1.44578,6.8656 4.33593,9.0976 2.89016,2.2095 6.77325,4.025 11.65039,5.4453 4.65135,1.3528 7.76711,2.7059 9.34766,4.0586 1.58056,1.3528 2.3711,3.1789 2.3711,5.4786 0,2.3898 -0.92584,4.2944 -2.77735,5.7148 -1.82893,1.3978 -4.44794,2.0957 -7.85742,2.0957 -3.16111,0 -5.97244,-0.7657 -8.43359,-2.2988 -2.46116,-1.5331 -3.69141,-3.9786 -3.69141,-7.3379 h -6.50391 c 0,3.2691 0.91522,6.0199 2.74414,8.2519 1.85151,2.2095 4.19993,3.8767 7.04493,5.0039 2.845,1.1273 5.79162,1.6915 8.83984,1.6915 5.19325,0 9.35951,-1.1942 12.49805,-3.584 3.13853,-2.3899 4.70703,-5.5924 4.70703,-9.6055 0,-3.8327 -1.31048,-6.9209 -3.92969,-9.2656 -2.59663,-2.3448 -6.68266,-4.3066 -12.25977,-5.8848 -4.06428,-1.1273 -7.01091,-2.3786 -8.83984,-3.7539 -1.80635,-1.3753 -2.70898,-3.0996 -2.70898,-5.1738 0,-2.2771 0.83498,-4.1711 2.50586,-5.6817 1.67087,-1.5331 4.24543,-2.2988 7.72265,-2.2988 3.68044,0 6.41154,0.9014 8.19531,2.7051 1.78377,1.8036 2.67579,4.0795 2.67579,6.8301 h 6.5039 c 0,-3.8328 -1.51343,-7.2708 -4.53906,-10.3145 -3.00306,-3.0436 -7.28141,-4.5644 -12.83594,-4.5644 z m -324.400389,0.6757 17.001953,30.8418 v 18.3985 h 6.53711 V 380.9257 L 95.498047,350.0839 H 88.080078 L 75.244141,374.8046 62.441406,350.0839 Z m 115.568359,0 v 5.3438 h 15.81641 v 43.8965 h 6.43554 v -43.8965 h 15.85157 v -5.3438 z m 61.49414,0 v 49.2403 h 31.32813 v -5.3106 h -24.79297 v -17.4492 h 21.33789 v -5.3105 h -21.33789 v -15.8262 h 24.45312 v -5.3438 z m 55.42969,0 v 49.2403 h 6.50195 v -19.209 l -0.64258,-20.6641 16.18946,39.8731 h 4.94531 l 16.22266,-39.8047 -0.64258,20.5957 v 19.209 h 6.50195 V 350.0839 H 328.125 l -16.12109,40.1426 -16.1543,-40.1426 z"/>
</svg>
