<?xml version="1.0" encoding="UTF-8" standalone="no"?>
<svg xmlns="http://www.w3.org/2000/svg" width="1600" height="400">
  <path
     d="m 156.58779,0 c -11.31172,0 -20.56676,0.52035076 -20.56676,1.1587838 0,1.6469219 -39.043642,222.0584662 -40.246124,227.2003962 l -0.989635,4.24645 20.953839,-0.52673 20.95749,-0.52672 20.17602,-113.45127 C 167.96954,55.702714 177.07097,3.6034727 177.09976,2.3248211 177.13846,0.60272383 171.82256,0 156.58779,0 Z m 149.57639,0 c -11.31171,0 -20.56675,0.66142091 -20.56675,1.471184 0,1.6993699 -12.69148,74.049979 -13.86212,79.025747 -0.71771,3.050556 0.8799,3.272474 20.08108,2.789786 l 20.86254,-0.523085 6.89089,-38.127066 C 323.3607,23.666679 326.52252,5.0448618 326.59581,3.2547496 326.71491,0.34422232 324.55582,0 306.16418,0 Z M 33.523211,104.15199 31.313893,117.63595 c -1.216112,7.41618 -2.886039,16.62247 -3.710186,20.45842 l -1.500887,6.97447 h 31.551271 c 31.196756,0 31.561685,-0.0469 32.482477,-4.18468 1.10436,-4.96275 6.620662,-34.96408 6.620662,-36.0093 0,-0.39846 -14.228174,-0.72287 -31.617009,-0.72287 z m 313.193849,0.2579 c -14.7732,0.002 -34.14033,0.0789 -59.4946,0.19254 l -107.07347,0.47948 -3.23182,17.66865 c -1.77701,9.71775 -3.29196,18.71481 -3.36693,19.99346 -0.10751,1.83421 22.32246,2.32482 106.28835,2.32482 h 106.42345 l 1.02251,-5.11461 c 0.56212,-2.81303 1.93378,-10.55469 3.04921,-17.20367 1.11542,-6.64899 2.4653,-13.55983 2.99811,-15.35835 0.68814,-2.3229 -2.29524,-2.98756 -46.61481,-2.98232 z m -90.10006,61.1319 -16.51329,93.45056 c -9.0819,51.39807 -18.42355,104.14741 -20.7603,117.22183 L 215.09274,400 l 20.74204,-0.52308 20.74204,-0.52309 20.69457,-116.70602 20.69821,-116.70602 h -20.6763 z m 110.75444,87.31158 -31.92373,0.50854 -31.92376,0.50856 -3.26102,17.66864 c -1.79318,9.71775 -3.3042,18.71481 -3.35599,19.99346 -0.072,1.77244 7.4619,2.32482 31.6937,2.32482 24.13715,0 31.80213,-0.55944 31.86533,-2.32482 0.0458,-1.27865 1.61929,-10.50492 3.49474,-20.50202 z m -253.58602,0.0872 c -58.726742,0 -106.7900686,0.62771 -106.8068959,1.3949 -0.016827,0.76719 -1.5950266,9.97348 -3.5056968,20.45842 L 0,293.85745 h 106.30295 106.30294 l 0.92756,-4.18468 c 0.51032,-2.30157 1.8447,-9.62476 2.96524,-16.27375 1.12051,-6.64899 2.4923,-13.97217 3.04921,-16.27375 l 1.01519,-4.18468 z m -33.307766,61.37528 -2.11804,12.55404 c -1.164601,6.90471 -4.541345,26.18018 -7.504378,42.83483 l -5.390004,30.28079 20.705523,-0.52308 20.701855,-0.52309 6.97488,-38.12707 c 3.83499,-20.96988 7.02499,-40.01017 7.09174,-42.31174 0.11854,-4.08983 -0.33489,-4.18468 -20.16872,-4.18468 z"
     style="fill:#ec7008"/>
  <path
     d="m 508.09232,104.15199 v 13.01899 13.019 h 9.34852 9.34853 v 69.74464 69.74463 h -9.34853 -9.34852 v 12.08907 12.08907 h 37.18959 37.19325 l -0.14976,-12.08907 -0.14976,-12.08907 h -8.99796 -8.99431 v -27.62178 c 0,-15.70463 0.91541,-30.34765 2.12533,-33.94238 8.42274,-25.02401 37.05901,-32.75621 47.42916,-12.80832 2.18412,4.20142 2.79727,12.90053 2.79727,39.87068 v 34.5018 h -8.41369 -8.41367 v 12.08907 12.08907 h 37.39411 37.3941 v -12.08907 -12.08907 h -9.18786 -9.18784 l -0.80704,-39.52196 c -0.90337,-44.26329 -2.21388,-50.57308 -12.63511,-60.93936 -8.01718,-7.97488 -19.25099,-11.62223 -35.58649,-11.54784 -15.17565,0.0694 -24.60032,3.82177 -34.96202,13.91261 l -7.94625,7.7373 V 141.73782 104.15199 H 536.1378 Z m 344.02571,0 v 18.59857 18.59856 h 19.6319 19.6319 v -18.59856 -18.59857 h -19.6319 z m 252.41017,0 v 13.01899 13.019 h 9.3485 9.3485 v 69.74464 69.74463 h -9.3485 -9.3485 v 12.08907 12.08907 h 37.3941 37.3941 v -11.98735 -11.98736 l -8.8811,-0.56668 -8.8811,-0.56668 -0.4893,-82.29867 -0.4857,-82.29866 h -28.0273 z m 254.2799,0 v 18.59857 18.59856 h 20.5667 20.5668 v -18.59856 -18.59857 h -20.5668 z m 174.7699,53.48905 c -14.7857,-0.0225 -28.4304,5.83527 -38.2413,16.42269 l -7.519,8.1187 v -10.18926 -10.18562 h -27.1107 -27.1107 v 12.08907 12.08907 h 9.3485 9.3485 v 41.84678 41.84678 h -9.3741 -9.3704 l 0.2629,12.08907 0.2666,12.08907 h 37.1531 37.1531 v -12.08907 -12.08907 h -8.5342 -8.5306 l 0.5843,-33.34666 c 0.5339,-30.40847 0.9324,-33.80978 4.499,-38.59203 13.8795,-18.6101 37.1455,-17.78821 44.5443,1.5729 2.503,6.54986 2.982,13.8161 2.5526,38.74822 l -0.5259,30.68764 -7.9462,0.57031 -7.9463,0.57395 v 11.98008 11.98373 H 1563.5408 1600 v -12.08907 -12.08907 h -9.1915 -9.1915 l -0.6391,-40.45189 c -0.573,-36.30719 -1.0377,-41.31616 -4.5464,-48.88299 -7.2926,-15.72732 -20.3982,-22.66985 -42.8535,-22.70333 z m -778.82707,0.0617 c -45.66872,-0.2243 -73.17668,28.88278 -70.43892,74.52869 1.98721,33.1326 15.18367,52.10439 43.12007,61.98916 7.69974,2.72432 13.93304,3.31205 30.26585,2.85155 23.16336,-0.653 34.30014,-4.30334 45.56674,-14.93335 5.97797,-5.6402 15.14095,-21.85986 15.1804,-26.87348 0.0131,-1.69582 -4.72596,-2.32482 -17.51753,-2.32482 h -17.53579 l -2.34443,5.62679 c -1.2889,3.09536 -4.96636,7.48927 -8.17266,9.76425 -8.08734,5.7384 -25.77921,5.61256 -35.31624,-0.25063 -7.29335,-4.48375 -14.45004,-16.88012 -14.45004,-25.02815 v -4.99112 h 48.88621 48.88986 l -1.09188,-16.27374 c -0.60104,-8.95057 -2.40377,-19.92508 -4.00598,-24.3852 -8.91105,-24.80603 -31.58836,-39.55488 -61.03566,-39.69995 z m 506.69007,0 c -34.7204,-0.17055 -59.6692,16.81233 -68.3538,46.52912 -2.2136,7.57427 -2.7892,15.12536 -2.1545,28.23568 1.6038,33.13279 16.0066,53.13661 45.008,62.50862 12.2423,3.9561 46.6879,2.56306 57.5226,-2.32483 15.5232,-7.0031 25.8042,-18.89625 30.7077,-35.52616 1.2186,-4.13261 1.0109,-4.18468 -16.568,-4.18468 h -17.7987 l -3.2282,6.76015 c -6.4208,13.45941 -27.6968,17.27692 -43.2807,7.76635 -7.1003,-4.33309 -13.497,-15.59079 -13.497,-23.75314 v -5.65222 h 48.8899 48.8898 l -1.0955,-15.42373 c -2.9231,-41.20234 -26.5042,-64.74583 -65.0416,-64.93516 z m -234.2974,0.0763 c -17.6586,-0.069 -30.28917,5.12077 -40.47987,16.637 l -7.40577,8.37298 v -10.49074 -10.49077 h -26.17587 -26.17587 v 11.98736 11.98737 l 8.8811,0.56666 8.8811,0.56668 0.5003,41.38182 0.50394,41.38181 h -9.38504 -9.3814 v 12.08907 12.08907 h 36.45925 36.45925 v -12.08907 -12.08907 h -8.41368 -8.41367 v -30.29532 c 0,-27.72135 0.35721,-30.99384 4.20684,-38.57388 7.8117,-15.38174 23.41479,-20.89476 36.56879,-12.91728 10.1033,6.12749 11.5761,12.3716 11.5761,49.17724 v 32.60924 h -8.4137 -8.4136 v 12.08907 12.08907 h 36.4592 36.4593 V 281.87 269.88264 l -8.8811,-0.56668 -8.8811,-0.56668 -1.0006,-40.91685 c -0.7786,-31.92388 -1.6519,-42.34764 -3.9841,-47.42635 -6.9979,-15.23892 -20.4141,-22.5452 -41.5498,-22.62704 z m -193.72262,4.02847 v 12.08907 12.08907 h 9.34852 9.34853 v 41.84678 41.84678 h -9.34124 -9.34121 l 0.21544,10.69418 c 0.11817,5.8818 0.58537,11.32188 1.03711,12.08907 0.45172,0.76719 17.60013,1.39489 38.1062,1.39489 h 37.28455 v -12.08907 -12.08907 h -9.34853 -9.34852 V 215.74336 161.80751 H 862.4014 Z m 508.55972,0 v 12.08907 12.08907 h 9.3485 9.3486 v 41.84678 41.84678 h -9.3486 -9.3485 v 12.08907 12.08907 h 38.329 38.3289 v -12.08907 -12.08907 h -9.3485 c -6.2139,0 -9.362,-0.77946 -9.385,-2.32482 -0.019,-1.27865 -0.042,-25.54978 -0.051,-53.93585 l -0.022,-51.61103 h -28.9256 z m -82.0077,20.93067 c 1.0109,0.0195 2.0231,0.0987 3.0309,0.2361 14.3791,1.96048 22.158,9.35743 24.7663,23.54609 l 1.3548,7.36314 -22.6519,0.14172 c -12.459,0.0783 -23.9139,0.32739 -25.4564,0.55578 -7.1828,1.06402 -11.2183,-0.98069 -11.2183,-5.68854 0,-13.86124 15.0109,-26.44692 30.1746,-26.15424 z m -507.41312,0.18152 c 8.31383,-0.17427 16.73732,2.87846 22.7286,9.66618 3.17895,3.60161 5.79136,7.98423 5.80632,9.73882 0.0149,1.75459 0.52174,5.02898 1.12838,7.27959 1.09774,4.07234 0.96337,4.09448 -28.31214,4.64964 -32.78107,0.62157 -32.81362,0.61126 -29.16666,-11.49696 3.74582,-12.43662 15.66453,-19.58242 27.8155,-19.83727 z"
     style="fill:#505559"/>
</svg>
