<?xml version="1.0" encoding="UTF-8" standalone="no"?>
<!-- Created with Inkscape (http://www.inkscape.org/) -->
<svg
   xmlns:svg="http://www.w3.org/2000/svg"
   xmlns="http://www.w3.org/2000/svg"
   version="1.0"
   width="779.52753"
   height="452.12598"
   id="svg2">
  <defs
     id="defs4" />
  <g
     transform="translate(-785.65831,827.56392)"
     id="layer1">
    <g
       transform="matrix(8.5205125,0,0,8.5205125,-5873.1197,3391.8596)"
       id="g6547">
      <path
         d="M 785.70824,-452.59672 L 787.80824,-452.59672 L 789.25574,-448.49297 L 789.27574,-448.49297 L 790.73199,-452.59672 L 792.82449,-452.59672 L 792.82449,-446.30297 L 791.43699,-446.30297 L 791.43699,-451.13047 L 791.41574,-451.13047 L 789.76449,-446.30297 L 788.70574,-446.30297 L 787.11574,-451.13047 L 787.09449,-451.13047 L 787.09449,-446.30297 L 785.70824,-446.30297 L 785.70824,-452.59672"
         id="path6423"
         style="fill:#f15e2f;fill-opacity:1;fill-rule:nonzero;stroke:none" />
      <path
         d="M 803.35074,-448.81047 L 801.81324,-448.81047 L 802.57824,-450.76422 L 803.35074,-448.81047 z M 799.32324,-446.30297 L 800.85199,-446.30297 L 801.37699,-447.63422 L 803.82324,-447.63422 L 804.36699,-446.30297 L 805.93324,-446.30297 L 803.19199,-452.59672 L 802.04449,-452.59672 L 799.32324,-446.30297"
         id="path6427"
         style="fill:#f15e2f;fill-opacity:1;fill-rule:nonzero;stroke:none" />
      <path
         d="M 813.99574,-451.42297 L 814.90449,-451.42297 C 815.41199,-451.42297 815.97949,-451.32547 815.97949,-450.69297 C 815.97949,-450.00922 815.32199,-449.99422 814.81324,-449.99422 L 813.99574,-449.99422 L 813.99574,-451.42297 z M 812.60949,-446.30297 L 813.99574,-446.30297 L 813.99574,-448.82297 L 814.68324,-448.82297 L 816.00074,-446.30297 L 817.66074,-446.30297 L 816.05824,-448.95922 C 816.94949,-449.12297 817.41699,-449.80172 817.41699,-450.69047 C 817.41699,-452.15547 816.33574,-452.59672 815.04949,-452.59672 L 812.60949,-452.59672 L 812.60949,-446.30297"
         id="path6431"
         style="fill:#f15e2f;fill-opacity:1;fill-rule:nonzero;stroke:none" />
      <path
         d="M 823.79824,-452.59672 L 825.38074,-452.59672 L 826.93574,-448.47172 L 826.95449,-448.47172 L 828.53699,-452.59672 L 830.02449,-452.59672 L 827.42574,-446.30297 L 826.31324,-446.30297 L 823.79824,-452.59672"
         id="path6435"
         style="fill:#f15e2f;fill-opacity:1;fill-rule:nonzero;stroke:none" />
      <path
         d="M 836.24949,-452.59672 L 840.52199,-452.59672 L 840.52199,-451.31547 L 837.63074,-451.31547 L 837.63074,-450.14172 L 840.36324,-450.14172 L 840.36324,-448.86172 L 837.63074,-448.86172 L 837.63074,-447.58547 L 840.68324,-447.58547 L 840.68324,-446.30297 L 836.24949,-446.30297 L 836.24949,-452.59672"
         id="path6439"
         style="fill:#f15e2f;fill-opacity:1;fill-rule:nonzero;stroke:none" />
      <path
         d="M 847.89699,-452.59672 L 849.28699,-452.59672 L 849.28699,-447.58547 L 851.85199,-447.58547 L 851.85199,-446.30297 L 847.89699,-446.30297 L 847.89699,-452.59672"
         id="path6443"
         style="fill:#f15e2f;fill-opacity:1;fill-rule:nonzero;stroke:none" />
      <path
         d="M 858.71824,-452.59672 L 860.10449,-452.59672 L 860.10449,-447.58547 L 862.67824,-447.58547 L 862.67824,-446.30297 L 858.71824,-446.30297 L 858.71824,-452.59672"
         id="path6447"
         style="fill:#f15e2f;fill-opacity:1;fill-rule:nonzero;stroke:none" />
      <path
         d="M 866.71824,-453.29797 C 867.89199,-453.29797 868.82949,-452.33797 868.82949,-451.16672 C 868.82949,-449.96547 867.89199,-449.01797 866.70574,-449.01797 C 865.52949,-449.01797 864.56949,-449.96547 864.56949,-451.16672 C 864.56949,-452.33797 865.52949,-453.29797 866.70574,-453.29797 L 866.71824,-453.29797 z M 866.69574,-452.87047 C 865.80324,-452.87047 865.08199,-452.10172 865.08199,-451.15422 C 865.08199,-450.19297 865.80324,-449.44547 866.70574,-449.44547 C 867.60449,-449.43547 868.33699,-450.19297 868.33699,-451.15422 C 868.33699,-452.10172 867.60449,-452.87047 866.70574,-452.87047 L 866.69574,-452.87047 z M 866.33449,-449.92172 L 865.82949,-449.92172 L 865.82949,-452.29172 C 866.02199,-452.32172 866.22949,-452.35797 866.59074,-452.35797 C 866.99949,-452.35797 867.24574,-452.29172 867.40449,-452.17047 C 867.53824,-452.06547 867.61699,-451.90172 867.61699,-451.65547 C 867.61699,-451.36922 867.41699,-451.17422 867.16074,-451.10547 L 867.16074,-451.08422 C 867.36824,-451.04672 867.50199,-450.86172 867.53824,-450.50797 C 867.58699,-450.14172 867.63574,-449.99422 867.67324,-449.92172 L 867.14824,-449.92172 C 867.09699,-450.00672 867.05574,-450.21422 867.01074,-450.53422 C 866.97449,-450.79047 866.81574,-450.89797 866.55949,-450.89797 L 866.33449,-450.89797 L 866.33449,-449.92172 z M 866.33449,-451.28922 L 866.57449,-451.28922 C 866.86699,-451.28922 867.09699,-451.37672 867.09699,-451.63047 C 867.09699,-451.82547 866.95324,-451.97922 866.61074,-451.97922 C 866.48574,-451.97922 866.40324,-451.97922 866.33449,-451.97172 L 866.33449,-451.28922"
         id="path6451"
         style="fill:#f15e2f;fill-opacity:1;fill-rule:nonzero;stroke:none" />
      <path
         d="M 400.5625,168.9375 L 368.75,200.75 L 386.53125,200.75 L 400.5625,186.625 L 412.34375,186.625 L 411.375,187.5625 L 400.5625,187.5625 L 400.5625,191.03125 L 407.9375,191.03125 L 407.03125,191.9375 L 400.5625,191.9375 L 400.5625,195.375 L 403.5625,195.375 L 402.65625,196.28125 L 400.5625,196.28125 L 400.5625,198.375 L 398.1875,200.75 L 416,200.75 L 430.03125,186.625 L 445.78125,186.625 L 445.78125,168.9375 L 430.0625,168.9375 L 430.03125,168.9375 L 416.3125,182.65625 L 416.3125,168.9375 L 400.59375,168.9375 L 400.5625,168.9375 z M 401.65625,170.03125 L 415.21875,170.03125 L 415.21875,185.5625 L 401.65625,185.5625 L 401.65625,170.03125 z M 431.125,170.03125 L 444.6875,170.03125 L 444.6875,185.5625 L 431.125,185.5625 L 431.125,170.03125 z M 430.03125,187.5625 L 430.03125,191.03125 L 445.78125,191.03125 L 445.78125,187.5625 L 430.03125,187.5625 z M 401.65625,188.65625 L 415.21875,188.65625 L 415.21875,189.9375 L 401.65625,189.9375 L 401.65625,188.65625 z M 431.125,188.65625 L 444.6875,188.65625 L 444.6875,189.9375 L 431.125,189.9375 L 431.125,188.65625 z M 430.03125,191.9375 L 430.03125,195.375 L 445.78125,195.375 L 445.78125,191.9375 L 430.03125,191.9375 z M 401.65625,193.03125 L 415.21875,193.03125 L 415.21875,194.28125 L 401.65625,194.28125 L 401.65625,193.03125 z M 431.125,193.03125 L 444.6875,193.03125 L 444.6875,194.28125 L 431.125,194.28125 L 431.125,193.03125 z M 430.03125,196.28125 L 430.03125,199.71875 L 445.78125,199.71875 L 445.78125,196.28125 L 430.03125,196.28125 z M 401.65625,197.375 L 415.21875,197.375 L 415.21875,198.65625 L 401.65625,198.65625 L 401.65625,197.375 z M 431.125,197.375 L 444.6875,197.375 L 444.6875,198.65625 L 431.125,198.65625 L 431.125,197.375 z"
         transform="translate(416.90827,-659.89361)"
         id="path6453"
         style="fill:#000000;fill-opacity:1;fill-rule:nonzero;stroke:none" />
      <path
         d="M 866.71824,-491.04922 C 867.89199,-491.04922 868.82949,-490.09547 868.82949,-488.91297 C 868.82949,-487.72172 867.89199,-486.76922 866.70574,-486.76922 C 865.52949,-486.76922 864.56949,-487.72172 864.56949,-488.91297 C 864.56949,-490.09547 865.52949,-491.04922 866.70574,-491.04922 L 866.71824,-491.04922 z M 866.69574,-490.62172 C 865.80324,-490.62172 865.08199,-489.85297 865.08199,-488.90547 C 865.08199,-487.94672 865.80324,-487.19172 866.70574,-487.19172 C 867.60449,-487.18922 868.33699,-487.94672 868.33699,-488.90547 C 868.33699,-489.85297 867.60449,-490.62172 866.70574,-490.62172 L 866.69574,-490.62172 z M 866.33449,-487.66797 L 865.82949,-487.66797 L 865.82949,-490.04547 C 866.02199,-490.07297 866.22949,-490.10922 866.59074,-490.10922 C 866.99949,-490.10922 867.24574,-490.04547 867.40449,-489.92422 C 867.53824,-489.81672 867.61699,-489.65547 867.61699,-489.41172 C 867.61699,-489.12547 867.41699,-488.92297 867.16074,-488.86172 L 867.16074,-488.84047 C 867.36824,-488.80047 867.50199,-488.61297 867.53824,-488.26422 C 867.58699,-487.88797 867.63574,-487.75172 867.67324,-487.66797 L 867.14824,-487.66797 C 867.09699,-487.75797 867.05574,-487.96172 867.01074,-488.29047 C 866.97449,-488.54422 866.81574,-488.64922 866.55949,-488.64922 L 866.33449,-488.64922 L 866.33449,-487.66797 z M 866.33449,-489.04047 L 866.57449,-489.04047 C 866.86699,-489.04047 867.09699,-489.13297 867.09699,-489.38172 C 867.09699,-489.58172 866.95324,-489.73172 866.61074,-489.73172 C 866.48574,-489.73172 866.40324,-489.73172 866.33449,-489.71922 L 866.33449,-489.04047"
         id="path6475"
         style="fill:#292526;fill-opacity:1;fill-rule:nonzero;stroke:none" />
    </g>
  </g>
</svg>
