<?xml version="1.0" encoding="UTF-8" standalone="yes"?>
<svg xmlns="http://www.w3.org/2000/svg" width="900" height="400">
  <path d="m 870.8315,367.3722 a 13.366647,13.366647 0 1 0 13.63943,13.36664 13.639436,13.639436 0 0 0 -13.63943,-13.36664 z m 0,24.05087 a 10.684225,10.684225 0 1 1 10.77515,-10.68423 10.63876,10.63876 0 0 1 -10.82062,10.68423 z" style="fill:#0d2c40" />
  <path d="m 287.33644,290.6731 -61.55932,-9.09295 c -10.59329,-1.6822 -15.95814,-6.91065 -15.95814,-15.45803 a 13.639436,13.639436 0 0 1 13.63944,-13.63944 h 100.02253 v -37.00833 h -99.88614 a 51.647996,51.647996 0 0 0 -53.37565,50.78416 c 0,23.3689 14.04861,47.60163 46.19222,52.55729 l 61.55932,9.09296 c 10.63876,1.6822 15.95814,6.91065 15.95814,15.50349 a 13.639436,13.639436 0 0 1 -13.63944,13.63944 h -72.74366 c -14.77605,0.40918 -30.32501,11.72991 -30.32501,33.96219 v 3.31893 h 102.93228 a 51.602531,51.602531 0 0 0 53.37565,-51.01149 c 0,-23.41436 -14.00315,-47.64709 -46.19222,-52.64822 z" style="fill:#0d2c40" />
  <path d="m 685.92622,266.25851 v 77.06281 a 51.647996,51.647996 0 0 0 53.42112,50.78417 H 847.3262 v -3.31893 c 0,-22.18682 -15.54895,-33.50755 -30.37047,-33.9622 h -77.83572 a 13.639436,13.639436 0 0 1 -13.63943,-13.63943 14.866985,14.866985 0 0 1 16.0036,-15.50349 h 33.73487 c 29.68851,0 46.78327,-18.18592 52.14811,-39.14518 h -81.06371 a 24.005407,24.005407 0 0 0 -20.77741,11.59352 v -33.87127 a 13.639436,13.639436 0 0 1 13.63944,-13.63943 h 77.83571 c 14.77606,-0.40919 30.37048,-11.77538 30.37048,-33.9622 v -3.27346 h -108.0698 a 51.647996,51.647996 0 0 0 -53.37565,50.87509 z" style="fill:#0d2c40" />
  <path d="m 876.60553,378.32921 c 0,-2.63696 -1.95499,-4.22823 -5.0466,-4.22823 h -5.72856 v 12.77561 h 2.81882 v -4.0009 h 2.22777 l 2.77335,4.13729 h 3.31893 l -3.13707,-4.54648 a 3.9554363,3.9554363 0 0 0 2.77336,-4.13729 z m -5.09206,2.04591 h -2.86428 v -3.77357 h 2.81881 c 1.36395,0 2.27324,0.6365 2.27324,1.90952 0,1.27301 -0.7729,1.77312 -2.22777,1.77312 z" style="fill:#0d2c40" />
  <path d="m 629.41349,290.6731 -61.55932,-9.09295 c -10.5933,-1.6822 -15.95814,-6.91065 -15.95814,-15.45803 a 13.639436,13.639436 0 0 1 13.63943,-13.63944 h 100.02253 v -37.00833 h -99.7952 a 51.647996,51.647996 0 0 0 -53.42112,50.78416 c 0,23.3689 14.04861,47.60163 46.23768,52.55729 l 61.51386,9.09296 c 10.63876,1.6822 16.0036,6.91065 16.0036,15.50349 a 13.639436,13.639436 0 0 1 -13.63943,13.63944 H 522.7531 v 37.28112 h 99.56788 a 51.647996,51.647996 0 0 0 53.42112,-51.01149 c 0,-23.41436 -14.04861,-47.64709 -46.32861,-52.64822 z" style="fill:#0d2c40" />
  <path d="m 462.3304,321.63462 a 40.19087,40.19087 0 1 1 -80.33627,0 v -106.2512 h -38.69054 v 103.84157 a 78.881402,78.881402 0 1 0 157.71734,0 V 215.38342 H 462.3304 Z" style="fill:#0d2c40" />
  <path d="m 463.1033,82.808105 a 20.470517,20.470517 0 1 0 1.36395,-40.918307 20.368224,20.368224 0 0 0 -21.0502,19.640787 20.459153,20.459153 0 0 0 19.68625,21.27752 z m 4.54648,-30.552336 c 5.00113,0 9.09296,2.682423 9.09296,6.046817 0,3.364394 -4.04637,6.046816 -9.09296,6.046816 -5.04659,0 -9.09296,-2.727887 -9.09296,-6.046816 0,-3.31893 4.31916,-6.001352 9.27482,-6.001352 z" style="fill:#02d35f" />
  <path d="m 512.61445,90.446189 c 0.72744,-0.500113 3.40986,-2.273239 2.77336,-4.546479 -2.63696,-9.092957 -11.63899,-39.827152 -19.18614,-47.60163 a 31.416167,31.416167 0 0 0 -7.50169,-6.501464 C 459.92077,15.02011 391.5872,4.881463 388.3592,4.517745 a 0.59104221,0.59104221 0 0 0 -0.77291,0.636507 c 0,0 -0.27278,14.185013 -0.27278,15.77628 C 380.35739,18.566363 329.61869,2.1990406 282.01706,0.51684354 241.6898,-0.89256476 186.54101,-2.8020858 108.8417,45.026868 l -2.27324,1.409409 C 69.878374,69.168669 44.599953,97.447761 31.415166,130.18241 a 97.703824,97.703824 0 0 0 -4.228226,55.37611 85.70112,85.70112 0 0 0 12.82107,27.77898 83.382416,83.382416 0 0 0 60.65002,34.50777 c 34.46231,3.18254 60.46817,-12.41188 69.92484,-41.41841 a 57.1947,57.1947 0 0 0 -24.50551,-64.51454 51.011489,51.011489 0 0 0 -53.784847,-1.22754 35.962645,35.962645 0 0 0 -16.776506,30.4614 33.507547,33.507547 0 0 0 32.280003,33.14383 38.872391,38.872391 0 0 0 12.41188,-1.95499 19.09521,19.09521 0 0 0 4.54648,-2.09138 l 0.50011,-0.31825 h 0.31826 v 0 a 10.911548,10.911548 0 0 0 -8.1382,-19.82265 h -0.72744 l -1.04569,0.31826 -1.50033,0.50011 a 25.323885,25.323885 0 0 1 -5.91043,0.81837 10.911548,10.911548 0 0 1 -9.320278,-10.86609 v 0 a 13.002929,13.002929 0 0 1 2.000448,-6.456 19.186139,19.186139 0 0 1 17.8222,-6.63786 29.915829,29.915829 0 0 1 25.59667,18.18592 31.370702,31.370702 0 0 1 -3.45532,32.82557 c -7.27437,9.36575 -20.1409,13.36665 -37.28112,11.50259 A 52.239038,52.239038 0 0 1 62.376684,146.04962 c 17.503943,-33.0529 50.556846,-32.68918 68.697296,-29.55211 25.77853,4.54648 64.83278,27.55166 79.51791,81.01825 h 35.64439 c -4.54648,-13.63944 -6.95611,-53.10287 33.18929,-53.10287 44.00991,0 49.55662,31.00698 62.01397,53.10287 h 37.73577 c -9.91132,-14.18502 -16.9129,-30.00676 -14.68513,-43.32794 3.27347,-19.64079 18.86789,-17.86766 40.50913,-15.45803 7.0925,0.81837 15.13977,1.72766 23.41436,1.90952 a 150.94309,150.94309 0 0 0 59.74073,-10.86608 79.245121,79.245121 0 0 0 20.32276,-10.86609 11.911774,11.911774 0 0 0 2.95521,-5.18298 l 0.54558,-1.40941 c 0.6365,-1.6822 1.45487,-5.22845 2.00045,-7.18344 1.04569,-3.95543 -2.50057,-1.86405 -2.50057,-1.86405 a 90.611317,90.611317 0 0 1 -39.55436,12.09363 c -19.59532,0.40918 -59.10422,-19.731719 -63.33244,-21.868561 l -0.40919,-0.454647 c -1.00022,-2.364169 -6.95611,-16.412788 -8.18366,-19.367999 28.37003,18.686027 52.10265,29.051997 70.28856,30.643267 19.95904,1.81859 35.64439,-9.183889 42.32771,-13.866761 z M 434.50595,61.66698 A 29.279322,29.279322 0 1 1 462.73958,91.901062 29.370251,29.370251 0 0 1 434.50595,61.66698 Z" style="fill:#02d35f" />
</svg>
