<?xml version="1.0" encoding="UTF-8" standalone="yes"?>
<svg xmlns="http://www.w3.org/2000/svg" width="1100" height="400">
<path style="fill:#a30100" d="M 539.32323,1.7475058 V 200.8737 400 H 810.49386 1081.6664 V 200.8737 1.7475058 H 810.49386 Z M 747.89277,204.90204 c 7.61293,0.002 15.23253,0.57457 19.35812,1.71451 21.19357,5.85611 32.31417,20.61675 36.65987,48.66107 1.94614,12.5592 2.2413,59.224 0.45927,72.64195 -3.92418,29.54755 -15.10599,44.97653 -36.52943,50.40586 -3.54484,0.89831 -10.29619,1.84471 -15.00339,2.10391 -35.16596,1.93582 -54.46903,-12.63902 -60.2839,-45.52124 -4.024,-22.75501 -3.09619,-72.38113 1.70298,-91.14831 5.00592,-19.57576 16.72985,-32.26904 34.31993,-37.15456 4.09708,-1.13786 11.70363,-1.70509 19.31655,-1.70319 z m -186.04744,3.0699 36.26105,0.3119 c 35.02377,0.30219 36.47487,0.38332 42.49073,2.38938 14.24268,4.74938 21.92743,13.05863 25.29674,27.35131 4.92634,20.89756 -2.72947,41.09718 -18.28457,48.24516 l -5.13343,2.35914 3.38323,0.71076 c 8.85128,1.85839 17.67309,8.72621 21.88325,17.03572 6.83541,13.49093 6.00255,36.61786 -1.79746,49.9295 -5.27572,9.00346 -16.45704,16.80995 -28.51553,19.9072 -4.68462,1.2032 -12.29663,1.56168 -40.67436,1.91688 l -34.90965,0.43645 v -85.29767 z m 263.96381,0.0756 20.02343,0.24197 20.02342,0.24385 16.98044,47.7537 c 9.33929,26.26493 18.54915,52.01141 20.46568,57.21488 l 3.48337,9.46115 0.0533,-57.43985 0.0533,-57.44166 h 15.76506 15.76515 v 85.16534 85.16353 l -19.46399,-0.24204 -19.46399,-0.24204 -2.01484,-5.40631 c -1.10791,-2.97334 -10.49111,-29.53209 -20.85129,-59.01821 l -18.83644,-53.60993 -0.23057,59.24121 -0.23254,59.24328 h -15.75935 -15.75942 v -85.1654 z m 136.03597,0.034 h 47.74899 47.7471 v 14.41758 14.41573 h -30.1806 -30.17896 v 19.37218 19.37215 h 28.37756 28.3776 v 14.41572 14.41757 h -28.3776 -28.37756 v 22.52532 22.52515 h 31.55296 31.5547 l -0.2476,14.19076 -0.2476,14.19262 -48.2668,0.23262 c -26.54601,0.12809 -48.53881,-0.0418 -48.87356,-0.37627 -0.33449,-0.3344 -0.60863,-38.6535 -0.60863,-85.15394 z M 747.54688,230.622 c -4.50538,0.0111 -6.84652,0.51163 -9.53731,2.0359 -10.25664,5.81013 -13.07966,18.70683 -13.09253,59.80079 -0.0142,45.70532 3.36035,58.15039 16.96719,62.56639 3.53066,1.14577 12.03795,0.34915 15.91629,-1.49147 2.07004,-0.98249 4.4042,-3.21013 6.00098,-5.72773 6.06625,-9.56471 7.3584,-20.99937 6.85152,-60.6212 -0.31728,-24.80244 -0.66522,-31.16637 -2.00347,-36.75384 -3.55497,-14.84281 -8.87614,-19.83922 -21.10267,-19.80884 z m -151.46665,2.4234 v 22.33242 22.33056 l 10.5863,-0.44989 c 11.52495,-0.49073 16.00728,-1.79668 20.34286,-5.92622 3.91144,-3.72555 5.24604,-7.82546 5.26761,-16.18316 0.027,-10.46188 -2.25928,-15.00396 -9.33318,-18.54233 -4.50597,-2.25388 -6.41645,-2.6193 -15.99,-3.06044 z m 0,68.53418 v 25.44017 25.44008 l 11.48597,-0.39315 c 9.45858,-0.32382 12.32237,-0.76009 16.22249,-2.47253 9.10546,-3.99814 12.36189,-10.10009 12.28737,-23.02622 -0.0523,-9.05698 -1.21323,-12.70302 -5.66077,-17.76915 -4.43739,-5.05467 -8.68547,-6.34649 -22.39736,-6.8128 z"/>
<path style="fill:#000000" d="m 321.7559,379.08169 c -21.24364,-2.45466 -34.44212,-13.57297 -40.94733,-34.49412 -6.09449,-19.60009 -7.10411,-72.09054 -1.8774,-97.60537 4.57974,-22.35644 16.60544,-36.13144 36.06797,-41.31444 8.06157,-2.14683 28.76699,-2.14202 36.84218,0.009 15.35916,4.09047 26.1389,14.47145 31.03514,29.88707 1.6333,5.14191 3.29384,17.50803 3.29384,24.52889 v 4.75387 h -17.02335 -17.02336 l -0.60537,-7.43347 c -0.76118,-9.3466 -2.66665,-17.19306 -5.15195,-21.21488 -2.48608,-4.02315 -8.50285,-6.73988 -14.8015,-6.68326 -17.27181,0.15521 -21.74487,15.28061 -20.79979,70.33342 0.5139,29.93537 1.40195,37.16861 5.62258,45.79643 2.80996,5.74409 6.6764,8.34311 13.45264,9.04249 5.69012,0.58747 11.63821,-1.23333 14.70893,-4.5024 4.68821,-4.99111 8.19735,-18.38008 8.2564,-31.50204 l 0.0314,-6.98293 h 17.06394 c 9.38516,0 17.29182,0.3688 17.57033,0.81947 0.89882,1.45449 -1.40756,23.63493 -3.18812,30.66035 -7.10004,28.01377 -27.82215,39.9119 -62.52722,35.90186 z"/>
<path style="fill:#000000" d="m 15,207.18177 v 85.22777 85.22771 l 34.909645,-0.40444 c 38.429339,-0.4456 40.800672,-0.73094 52.205705,-6.27787 14.57256,-7.08746 22.20054,-19.952 23.38398,-39.43244 0.88711,-14.60248 -2.73391,-26.32186 -10.53148,-34.07901 -4.46452,-4.44142 -7.39273,-6.14089 -14.29462,-8.29482 l -4.866941,-1.51794 4.908501,-2.2476 c 12.94475,-5.92715 19.68891,-18.21073 19.68891,-35.85403 0,-18.05241 -7.0005,-30.86481 -20.2578,-37.06951 -9.758285,-4.56709 -16.215422,-5.21274 -52.489221,-5.24757 z m 34.232999,24.96379 10.586303,0.51228 c 15.277543,0.74195 20.061142,2.76336 23.939656,10.1133 1.519218,2.87893 1.906773,5.23681 1.927875,11.71441 0.02267,7.00219 -0.280471,8.65742 -2.222728,12.12841 -2.737066,4.89142 -6.694603,7.69207 -12.686166,8.97722 -2.483742,0.53274 -8.347349,0.96974 -13.030166,0.96974 h -8.514774 v -22.20769 z m 0,68.5342 11.937698,0.39502 c 12.975677,0.42915 17.077827,1.55218 21.703719,5.9432 5.169555,4.9072 6.448914,8.69546 6.448914,19.09813 0,8.13368 -0.299253,10.07075 -2.135786,13.80133 -2.407048,4.8896 -6.685723,8.16675 -13.234281,10.13786 -2.62848,0.79111 -8.234665,1.28924 -14.50253,1.28924 H 49.232999 v -25.33243 z" />
<path style="fill:#000000" d="m 179.93343,207.18177 -0.877,3.37803 c -0.81548,3.13855 -5.37321,20.39808 -26.34383,99.78902 -4.45061,16.84924 -10.09317,38.1359 -12.54064,47.30381 -2.44748,9.168 -4.45069,17.3784 -4.45112,18.2456 -6.8e-4,1.44764 1.43297,1.57662 17.50585,1.57662 15.88678,0 17.5527,-0.14578 17.99539,-1.57662 0.26831,-0.8672 1.93314,-8.26729 3.70077,-16.444 1.76765,-8.17689 3.42696,-15.57688 3.68754,-16.44417 0.43467,-1.44667 2.32149,-1.57654 22.87175,-1.57654 h 22.39738 l 1.05655,5.18143 c 0.58092,2.84951 2.33793,10.85777 3.903,17.79572 l 2.84455,12.61422 17.78371,0.24374 c 10.41628,0.14329 17.7837,-0.10027 17.7837,-0.58596 0,-1.14142 -44.19734,-167.95809 -44.7267,-168.81472 -0.2337,-0.37819 -9.91134,-0.68618 -21.50715,-0.68618 z m 21.70749,32.14141 c 0.0181,0.002 0.0329,0.0184 0.0453,0.0491 0.35855,0.8781 2.07462,8.28801 3.81227,16.46483 3.99208,18.7852 11.14714,52.06526 11.76761,54.73655 l 0.47061,2.02835 h -16.23383 c -8.92836,0 -16.24339,-0.30506 -16.25462,-0.67671 -0.0111,-0.37164 3.53665,-17.20657 7.88349,-37.41166 4.71352,-21.90952 7.94676,-35.2705 8.50911,-35.19051 z"/>
<path style="fill:#000000" d="m 406.891,292.32802 v -85.14694 h 17.10627 17.1063 l 0.23603,34.00043 0.23608,34.00045 21.57733,-34.00045 21.57734,-34.00043 h 18.84158 18.84156 l -1.63724,2.47783 c -2.17328,3.28908 -38.63732,60.75468 -42.01747,66.21755 l -2.6433,4.27202 4.91011,9.24337 c 2.70053,5.08391 9.06994,17.14986 14.1542,26.8135 5.08428,9.66347 14.29813,27.03857 20.47524,38.61128 6.82378,12.78427 10.90634,21.3664 10.40353,21.86906 -0.46491,0.46507 -8.81818,0.72045 -19.06144,0.58329 l -18.23389,-0.24435 -14.87488,-29.28346 c -8.1812,-16.10578 -16.10137,-31.68142 -17.6004,-34.61226 l -2.72549,-5.32898 -6.21862,9.63751 -6.21861,9.6376 v 25.1999 25.20027 H 424.00812 406.891 Z" />
<path style="fill:#a30100" d="M 60.494741,174.68024 C 35.084335,171.21425 21.813719,156.65647 17.165455,127.14829 14.0389,107.30026 14.621009,60.316772 18.211947,42.683061 22.906505,19.629919 35.736198,5.6038782 56.069134,1.2957548 63.983923,-0.38122263 81.21959,-0.4047604 89.02957,1.250777 c 12.8162,2.7166749 23.35898,10.355384 28.90529,20.943124 4.38064,8.362496 6.00262,15.050574 6.67719,27.532847 l 0.57216,10.587064 H 107.92958 90.67493 L 90.6592,54.231885 C 90.637863,45.949264 88.480042,36.391862 85.673758,32.150663 82.785421,27.785482 77.426,25.220194 71.13889,25.193571 c -8.416905,-0.03555 -12.655099,2.743671 -16.178679,10.609642 -4.321552,9.64742 -5.214841,18.581978 -5.243255,52.442415 -0.0291,34.671032 0.942621,43.848442 5.626885,53.143292 3.587727,7.11902 7.452438,9.17812 16.576489,8.83185 7.670123,-0.29109 10.378602,-1.64519 14.033108,-7.01573 3.133501,-4.6049 4.746336,-11.09922 5.873074,-23.64873 l 1.031449,-11.48811 h 16.926449 16.92645 v 3.05813 c 0,6.00332 -1.89817,21.81949 -3.30961,27.57677 -4.42769,18.06058 -15.95783,30.37222 -32.419902,34.61725 -6.995643,1.80397 -22.244431,2.48416 -30.486678,1.35992 z"/>
<path style="fill:#a30100" d="m 198.03655,0.0045995 c -5.39516,0.04675555 -10.46897,0.45104879 -14.06591,1.2514219 -8.90155,1.9806662 -12.33139,3.4361948 -18.84215,7.9998915 -11.91642,8.3527891 -18.87675,23.8510081 -21.25576,47.3245841 -1.22198,12.057251 -1.21969,50.407353 0.004,62.430293 3.6214,35.587 16.5411,51.79268 44.44507,55.7498 7.29154,1.03404 23.9188,0.29906 30.96695,-1.3686 13.69522,-3.24044 23.72757,-11.34393 29.87828,-24.13015 6.60406,-13.72867 8.52037,-27.57811 8.50344,-61.466203 -0.0166,-33.004624 -1.86881,-47.043109 -7.96856,-60.369782 C 244.02022,15.013476 234.6042,6.457878 222.34079,2.5641367 216.9124,0.84055486 207.02825,-0.07329381 198.03634,0.0045995 Z m 1.61224,25.1736205 c 13.39456,0.0136 18.91756,6.069546 22.24427,24.392928 1.24833,6.875741 1.54127,14.058601 1.54417,37.77272 0.004,31.047212 -0.78479,40.474762 -4.13924,49.460662 -2.51704,6.74265 -4.79893,9.6531 -9.25948,11.8127 -4.38234,2.12176 -14.63246,2.41685 -18.92908,0.54443 -4.32289,-1.88387 -8.28357,-7.15011 -10.30846,-13.70684 -3.18208,-10.30381 -3.84416,-20.69721 -3.41914,-53.651546 0.36322,-28.162118 0.57571,-31.599637 2.34937,-38.158347 3.4616,-12.800415 9.58276,-18.477151 19.91759,-18.466707 z" />
<path style="fill:#a30100" d="M 278.06223,2.4790523 V 87.710579 172.9421 h 17.1165 17.11839 v -36.14136 -36.14135 l 12.83737,0.36673 c 13.60054,0.38869 16.20508,1.08249 20.22758,5.39124 4.4546,4.77159 5.00663,7.84706 6.13895,34.18862 0.91006,21.17068 1.32335,25.40283 2.7784,28.38342 l 1.71052,3.5028 18.69471,0.24386 c 17.7123,0.23075 20.99252,-0.18899 17.43403,-2.22683 -0.69201,-0.39631 -2.13244,-2.21071 -3.20177,-4.03207 -1.69683,-2.89017 -2.05491,-5.47094 -2.81244,-20.27387 -1.9028,-37.18371 -3.13343,-43.15001 -10.25554,-49.715886 -2.87565,-2.65104 -5.73542,-4.183466 -10.52014,-5.636968 l -6.56989,-1.996213 3.16966,-1.096391 c 12.3233,-4.26703 19.78152,-12.689757 22.88121,-25.839016 1.58515,-6.724345 1.76928,-22.112075 0.34589,-28.816295 C 382.8079,22.044568 375.59233,12.65649 365.94497,8.108491 356.42941,3.6226342 353.93842,3.3698076 314.77311,2.9100566 Z m 34.23489,25.1282607 11.99252,0.502827 c 13.29306,0.557422 17.25377,1.686773 21.99477,6.275927 4.32365,4.185146 5.93165,10.028416 5.49634,19.982751 -0.30682,7.016318 -0.73983,8.932762 -2.82944,12.498913 -2.87779,4.911234 -7.86472,8.12486 -14.85219,9.574557 -2.62575,0.544756 -8.60629,0.990542 -13.28911,0.990542 h -8.51289 V 52.520063 Z" />
<path style="fill:#a30100" d="M 410.49461,87.795139 V 2.6481367 h 47.29728 47.29729 V 17.06456 31.480974 H 474.909 444.72882 v 19.822591 19.822582 h 28.37838 28.37836 V 85.092046 99.057963 H 473.1072 444.72882 l -3.9e-4,22.750907 -3.9e-4,22.75092 31.53192,-0.24786 31.53192,-0.24789 v 14.43904 14.43903 h -48.64866 -48.64861 z" />
</svg>
